<svg width="12" height="12" viewBox="0 0 12 12" fill="none" xmlns="http://www.w3.org/2000/svg">
<path fill-rule="evenodd" clip-rule="evenodd" d="M4 0C3.44772 0 3 0.447715 3 1V2H1C0.447715 2 0 2.44772 0 3V11C0 11.5523 0.447715 12 1 12H11C11.5523 12 12 11.5523 12 11V3C12 2.44772 11.5523 2 11 2H9V1C9 0.447715 8.55229 0 8 0C7.44772 0 7 0.447715 7 1V2H5V1C5 0.447715 4.55228 0 4 0ZM2.5 6C2.22386 6 2 6.22386 2 6.5V9.5C2 9.77614 2.22386 10 2.5 10H9.5C9.77614 10 10 9.77614 10 9.5V6.5C10 6.22386 9.77614 6 9.5 6H2.5Z" fill="#777777"/>
</svg>
