<svg width="466" height="222" viewBox="0 0 466 222" fill="none" xmlns="http://www.w3.org/2000/svg">
<mask id="mask0_4_105" style="mask-type:alpha" maskUnits="userSpaceOnUse" x="0" y="0" width="466" height="222">
<rect width="465.566" height="222" fill="white"/>
</mask>
<g mask="url(#mask0_4_105)">
<path d="M417.184 60.2259C417.184 27.2856 390.528 0.538483 357.499 0.538483C324.56 0.538483 297.814 27.2856 297.814 60.2259C297.814 76.7409 304.545 91.6404 315.315 102.411C316.213 103.309 317.38 103.847 318.726 103.847C321.419 103.847 323.573 101.693 323.573 99.0003C323.573 97.654 323.034 96.3974 322.137 95.4999C313.161 86.5243 307.597 73.9585 307.597 60.2259C307.597 32.671 329.945 10.2321 357.499 10.2321C385.053 10.2321 407.491 32.671 407.491 60.2259C407.491 74.0483 401.926 86.5243 392.861 95.5896L350.678 137.775L357.499 144.686L399.772 102.411C410.542 91.6404 417.184 76.7409 417.184 60.2259V60.2259Z" fill="#D9232E"/>
<path d="M385.143 71.7146L370.244 34.107L357.678 56.0972L345.113 34.107L330.214 71.7146H325.906V77.3692H348.344V71.7146H345.023L348.254 62.38L357.678 77.818L367.102 62.38L370.334 71.7146H367.013V77.3692H389.54V71.7146H385.143Z" fill="#D9232E"/>
<path d="M274.299 157.204H277.35L283.454 172.014L289.826 157.204H292.878L296.737 180.181H292.249L290.185 166.269L283.992 180.54H282.736L276.812 166.269L274.568 180.181H270.081L274.299 157.204Z" fill="#D9232E"/>
<path fill-rule="evenodd" clip-rule="evenodd" d="M315.675 172.911C315.675 170.488 314.687 168.423 313.162 167.167C311.905 166 310.02 165.102 307.238 165.102C304.456 165.102 302.571 166 301.314 167.167C299.878 168.423 298.891 170.488 298.891 172.911C298.891 175.245 299.878 177.309 301.314 178.655C302.571 179.822 304.456 180.72 307.238 180.72C310.02 180.72 311.905 179.822 313.162 178.655C314.687 177.309 315.675 175.245 315.675 172.911ZM307.238 168.693C309.661 168.693 311.366 170.577 311.366 172.911C311.366 175.155 309.661 177.04 307.238 177.04C304.815 177.04 303.109 175.155 303.109 172.911C303.109 170.577 304.904 168.693 307.238 168.693Z" fill="#D9232E"/>
<path d="M329.407 170.039C328.509 169.231 327.432 168.693 325.996 168.693C323.214 168.693 321.867 170.757 321.867 172.911C321.867 175.245 323.662 177.04 326.176 177.04C327.073 177.04 328.24 176.771 329.407 175.783V179.822C328.599 180.181 327.253 180.72 325.547 180.72C323.303 180.72 321.239 179.822 319.893 178.566C318.816 177.489 317.559 175.693 317.559 172.911C317.559 170.398 318.636 168.334 320.162 166.987C321.957 165.372 324.021 165.102 325.457 165.102C326.983 165.102 328.24 165.372 329.407 165.91V170.039Z" fill="#D9232E"/>
<path d="M336.138 165.551V171.206L341.613 165.551H346.819L340.177 172.103L347.088 180.181H341.792L336.766 174.168L336.138 174.796V180.181H332.009V165.551H336.138Z" fill="#D9232E"/>
<path fill-rule="evenodd" clip-rule="evenodd" d="M364.5 172.911C364.5 170.488 363.512 168.423 361.987 167.167C360.82 166 358.845 165.102 356.063 165.102C353.281 165.102 351.396 166 350.139 167.167C348.703 168.423 347.716 170.488 347.716 172.911C347.716 175.245 348.703 177.309 350.139 178.655C351.396 179.822 353.281 180.72 356.063 180.72C358.845 180.72 360.82 179.822 361.987 178.655C363.512 177.309 364.5 175.245 364.5 172.911ZM356.063 168.693C358.486 168.693 360.191 170.577 360.191 172.911C360.191 175.155 358.486 177.04 356.063 177.04C353.729 177.04 351.934 175.155 351.934 172.911C351.934 170.577 353.729 168.693 356.063 168.693Z" fill="#D9232E"/>
<path fill-rule="evenodd" clip-rule="evenodd" d="M377.155 166.449C375.988 165.551 374.642 165.551 373.654 165.551H367.192V180.181H374.731C375.36 180.181 376.885 180.181 378.052 179.284C378.77 178.745 379.578 177.758 379.578 176.053C379.578 174.706 379.129 173.898 378.501 173.27C377.962 172.821 377.244 172.462 376.526 172.283C377.873 171.744 378.591 170.577 378.591 169.321C378.591 168.064 377.962 167.077 377.155 166.449ZM373.206 171.385C373.295 171.385 373.834 171.385 374.283 171.116C374.642 170.847 374.821 170.488 374.821 170.129C374.821 169.59 374.642 169.231 374.372 169.052C374.013 168.782 373.565 168.782 373.116 168.782H371.321V171.385H373.206ZM373.295 176.95C373.654 176.95 374.372 176.95 374.821 176.591C375.09 176.412 375.36 175.963 375.36 175.424C375.36 174.886 375.09 174.527 374.821 174.347C374.372 174.078 373.744 173.988 373.385 173.988H371.321V176.95H373.295Z" fill="#D9232E"/>
<path d="M393.22 170.039C392.323 169.231 391.246 168.693 389.81 168.693C387.028 168.693 385.681 170.757 385.681 172.911C385.681 175.245 387.476 177.04 389.9 177.04C390.887 177.04 392.054 176.771 393.22 175.783V179.822C392.413 180.181 391.066 180.72 389.361 180.72C387.117 180.72 385.053 179.822 383.707 178.566C382.63 177.489 381.373 175.693 381.373 172.911C381.373 170.398 382.45 168.334 383.886 166.987C385.681 165.372 387.835 165.102 389.182 165.102C390.707 165.102 391.964 165.372 393.22 165.91V170.039Z" fill="#D9232E"/>
<path d="M399.952 165.551V171.206L405.427 165.551H410.543L403.901 172.103L410.902 180.181H405.606L400.58 174.168L399.952 174.796V180.181H395.823V165.551H399.952Z" fill="#D9232E"/>
<path d="M416.376 165.551V174.616L423.108 165.551H427.326V180.181H423.108V171.206L416.376 180.181H412.248V165.551H416.376Z" fill="#D9232E"/>
<path fill-rule="evenodd" clip-rule="evenodd" d="M438.186 162.948C440.071 162.948 442.764 162.32 443.751 159.448L441.058 158.191C440.699 159.627 439.443 160.345 438.186 160.345C436.84 160.345 435.673 159.448 435.404 158.191L432.711 159.448C433.699 162.32 436.391 162.948 438.186 162.948ZM434.865 174.616V165.551H430.737V180.181H434.865L441.597 171.206V180.181H445.725V165.551H441.597L434.865 174.616Z" fill="#D9232E"/>
<path d="M256.707 189.336H259.759L265.862 204.146L272.324 189.336H275.376L279.145 212.314H274.658L272.683 198.402L266.401 212.673H265.234L259.31 198.402L256.977 212.314H252.489L256.707 189.336Z" fill="#D9232E"/>
<path fill-rule="evenodd" clip-rule="evenodd" d="M289.198 212.852C294.313 212.852 296.019 209.352 296.468 208.275L292.608 207.646C291.98 208.813 290.813 209.531 289.198 209.531C287.672 209.531 286.685 208.813 286.236 208.185C285.787 207.557 285.518 206.569 285.518 205.672H296.557V205.403C296.557 203.787 296.378 201.453 294.762 199.568C293.775 198.402 292.07 197.145 289.018 197.145C287.313 197.145 285.249 197.594 283.543 199.299C282.466 200.286 281.299 202.082 281.299 205.044C281.299 207.287 281.928 209.262 283.633 210.788C285.069 212.134 286.864 212.852 289.198 212.852ZM289.197 200.107C290.634 200.107 292.339 201.094 292.608 203.069H285.697C286.056 201.094 287.672 200.107 289.197 200.107Z" fill="#D9232E"/>
<path d="M305.622 201.005V211.775H301.135V201.005H296.647V197.414H309.213V201.005H305.622Z" fill="#D9232E"/>
<path fill-rule="evenodd" clip-rule="evenodd" d="M311.366 220.212H315.495V210.429C317.11 212.673 319.264 212.852 320.162 212.852C324.56 212.852 327.522 209.442 327.522 204.954C327.522 200.556 324.65 197.145 320.342 197.145C319.085 197.145 317.021 197.504 315.495 199.568V197.684H311.366V220.212ZM319.175 209.172C316.841 209.172 315.136 207.287 315.136 204.954C315.136 202.62 316.841 200.825 319.175 200.825C321.598 200.825 323.214 202.62 323.214 204.954C323.214 207.287 321.598 209.172 319.175 209.172Z" fill="#D9232E"/>
<path fill-rule="evenodd" clip-rule="evenodd" d="M346.28 205.044C346.28 202.62 345.293 200.556 343.767 199.299C342.51 198.132 340.626 197.145 337.843 197.145C335.061 197.145 333.176 198.132 331.92 199.299C330.484 200.556 329.496 202.62 329.496 205.044C329.496 207.377 330.484 209.442 331.92 210.788C333.176 211.865 335.061 212.852 337.843 212.852C340.626 212.852 342.51 211.865 343.767 210.788C345.293 209.442 346.28 207.377 346.28 205.044ZM337.843 200.825C340.267 200.825 341.972 202.71 341.972 205.044C341.972 207.287 340.267 209.172 337.843 209.172C335.42 209.172 333.715 207.287 333.715 205.044C333.715 202.71 335.51 200.825 337.843 200.825Z" fill="#D9232E"/>
<path d="M362.166 197.414V211.775H358.576V201.005H352.293V211.775H348.703V197.414H362.166Z" fill="#D9232E"/>
<path fill-rule="evenodd" clip-rule="evenodd" d="M382.36 205.044C382.36 202.62 381.283 200.556 379.847 199.299C378.591 198.132 376.706 197.145 373.924 197.145C371.141 197.145 369.256 198.132 368 199.299C366.564 200.556 365.487 202.62 365.487 205.044C365.487 207.377 366.564 209.442 368 210.788C369.256 211.865 371.141 212.852 373.924 212.852C376.706 212.852 378.591 211.865 379.847 210.788C381.283 209.442 382.36 207.377 382.36 205.044ZM373.924 200.825C376.257 200.825 378.052 202.71 378.052 205.044C378.052 207.287 376.347 209.172 373.924 209.172C371.5 209.172 369.795 207.287 369.795 205.044C369.795 202.71 371.59 200.825 373.924 200.825Z" fill="#D9232E"/>
<path d="M398.067 212.314H393.849V201.184H389.9V206.569C389.9 207.736 389.72 209.621 388.464 210.878C388.194 211.237 386.938 212.493 384.514 212.493C384.155 212.493 383.707 212.404 383.348 212.314V208.813C383.527 208.813 383.796 208.903 383.976 208.903C384.873 208.903 385.412 208.544 385.681 208.185C386.13 207.647 386.13 206.928 386.13 206.3V197.684H398.067V212.314Z" fill="#D9232E"/>
<path d="M405.606 197.684V206.749L412.338 197.684H416.466V212.314H412.338V203.248L405.606 212.314H401.478V197.684H405.606Z" fill="#D9232E"/>
<path d="M425.89 201.005V211.775H421.403V201.005H417.812V197.414H430.378V201.005H425.89Z" fill="#D9232E"/>
<path fill-rule="evenodd" clip-rule="evenodd" d="M439.263 212.852C444.379 212.852 446.084 209.352 446.533 208.275L442.674 207.646C442.046 208.813 440.879 209.531 439.263 209.531C437.648 209.531 436.75 208.813 436.301 208.185C435.853 207.557 435.583 206.569 435.583 205.672H446.623V205.403C446.623 203.787 446.443 201.453 444.828 199.568C443.841 198.402 442.135 197.145 439.084 197.145C437.378 197.145 435.314 197.594 433.609 199.299C432.532 200.286 431.365 202.082 431.365 205.044C431.365 207.287 431.993 209.262 433.699 210.788C435.135 212.134 436.93 212.852 439.263 212.852ZM439.174 200.107C440.699 200.107 442.405 201.094 442.674 203.069H435.763C436.122 201.094 437.648 200.107 439.174 200.107Z" fill="#D9232E"/>
<path d="M449.226 197.414H452.816V202.8H459.098V197.414H462.688V211.775H459.098V205.492H452.816V211.775H449.226V197.414Z" fill="#D9232E"/>
</g>
<path fill-rule="evenodd" clip-rule="evenodd" d="M66.7527 61.0886C66.7527 47.271 78.0246 35.9987 91.9326 35.9987C105.75 35.9987 117.112 47.271 117.112 61.0886C117.112 74.9972 105.75 86.2694 91.9326 86.2694C78.0246 86.2694 66.7527 74.9972 66.7527 61.0886ZM76.5702 61.0886C76.5702 69.5428 83.4787 76.4516 91.9326 76.4516C100.387 76.4516 107.295 69.5428 107.295 61.0886C107.295 52.6344 100.387 45.8165 91.9326 45.8165C83.4787 45.8165 76.5702 52.6344 76.5702 61.0886Z" fill="#D9232E"/>
<path d="M122.112 91.3601L122.203 91.2692C129.93 83.5423 134.657 72.9063 134.657 61.0886C134.657 37.5441 115.476 18.363 91.9326 18.363C68.389 18.363 49.2086 37.5441 49.2086 61.0886C49.2086 72.9063 54.0264 83.6332 61.6622 91.2692C62.5712 92.1783 63.8439 92.7237 65.2074 92.7237C67.9344 92.7237 70.1161 90.542 70.1161 87.8148C70.1161 86.4512 69.4798 85.1786 68.5708 84.2695C62.6621 78.3607 59.026 70.1792 59.026 61.0886C59.026 42.9075 73.7522 28.1808 91.9326 28.1808C110.113 28.1808 124.839 42.9075 124.839 61.0886C124.839 70.1792 121.203 78.4516 115.204 84.3604L72.4796 127.086L79.479 133.995L122.112 91.3601Z" fill="#D9232E"/>
<path d="M152.292 61.0887C152.292 27.8173 125.294 0.727448 91.9325 0.727448C58.5715 0.727448 31.5735 27.8173 31.5735 61.0887C31.5735 77.7244 38.3003 92.9056 49.2086 103.723C50.1176 104.632 51.2993 105.178 52.7537 105.178C55.3899 105.178 57.6624 102.996 57.6624 100.269C57.6624 98.9054 57.0261 97.6327 56.1171 96.7237C47.0269 87.6331 41.391 74.9973 41.391 61.0887C41.391 33.2716 64.0256 10.5452 91.9325 10.5452C119.839 10.5452 142.474 33.2716 142.474 61.0887C142.474 75.0882 136.838 87.724 127.657 96.8146L84.9331 139.54L91.9325 146.449L134.657 103.723C145.565 92.8147 152.292 77.7244 152.292 61.0887V61.0887Z" fill="#D9232E"/>
<path d="M2.0304 179.396L6.21189 156.488H9.30256L15.393 171.215L21.7561 156.488H24.8468L28.6647 179.396H24.2105L22.1198 165.397L15.9384 179.76H14.7567L8.84805 165.579L6.4846 179.396H2.0304Z" fill="#D9232E"/>
<path fill-rule="evenodd" clip-rule="evenodd" d="M42.1183 164.851C41.1183 164.488 40.0275 164.306 38.8458 164.306C37.6641 164.306 36.5732 164.488 35.5733 164.851C34.5734 165.215 33.6644 165.67 32.9371 166.397C32.2099 167.124 31.5736 167.942 31.1191 168.942C30.6646 169.942 30.4828 170.942 30.4828 172.124C30.4828 173.306 30.6646 174.397 31.1191 175.397C31.5736 176.306 32.2099 177.215 32.9371 177.851C33.6644 178.578 34.5734 179.033 35.5733 179.396C36.5732 179.76 37.6641 179.942 38.8458 179.942C40.0275 179.942 41.1183 179.76 42.1183 179.396C43.1182 179.033 44.0272 178.578 44.7544 177.851C45.5725 177.215 46.1179 176.306 46.5725 175.397C47.027 174.397 47.2997 173.306 47.2997 172.124C47.2997 170.942 47.027 169.942 46.5725 168.942C46.1179 167.942 45.5725 167.124 44.8453 166.397C44.0272 165.67 43.1182 165.215 42.1183 164.851ZM41.8455 175.033C41.0273 175.851 40.0274 176.215 38.8457 176.215C37.664 176.306 36.664 175.851 35.9368 175.124C35.1187 174.306 34.7551 173.306 34.7551 172.124C34.7551 170.942 35.1187 170.033 35.9368 169.215C36.664 168.397 37.664 167.942 38.8457 167.942C40.0274 168.033 41.0273 168.397 41.8455 169.215C42.5727 170.033 43.0272 170.942 43.0272 172.124C43.0272 173.306 42.5727 174.306 41.8455 175.033Z" fill="#D9232E"/>
<path d="M61.5712 165.215V169.215C61.1167 168.851 60.6622 168.579 60.1168 168.306C59.4805 168.124 58.9351 167.942 58.2078 167.942C56.9352 167.942 55.9353 168.397 55.2081 169.215C54.39 170.033 54.1172 170.942 54.1172 172.124C54.1172 173.306 54.4809 174.306 55.299 175.124C56.1171 175.851 57.117 176.215 58.3896 176.215C58.9351 176.215 59.4805 176.124 60.1168 175.942C60.6622 175.76 61.1167 175.397 61.5712 174.942V179.033C61.0258 179.305 60.3895 179.487 59.7532 179.669C59.1169 179.851 58.4805 179.942 57.8442 179.942C56.7534 179.851 55.6626 179.669 54.6627 179.305C53.6627 178.942 52.8446 178.396 52.1174 177.76C51.3902 177.124 50.8448 176.306 50.3903 175.306C50.0267 174.397 49.8448 173.306 49.8448 172.215C49.8448 170.942 50.0267 169.76 50.4812 168.76C50.9357 167.76 51.572 166.942 52.3901 166.215C53.1173 165.579 53.9354 165.124 54.8445 164.761C55.6626 164.488 56.6625 164.306 57.6624 164.306C58.3896 164.306 59.1169 164.397 59.7532 164.579C60.3895 164.67 61.0258 164.942 61.5712 165.215V165.215Z" fill="#D9232E"/>
<path d="M65.2983 164.761H69.3889V170.488L74.9339 164.761H80.0244L73.3886 171.306L80.388 179.396H75.1157L70.0252 173.397L69.3889 174.033V179.396H65.2983V164.761Z" fill="#D9232E"/>
<path fill-rule="evenodd" clip-rule="evenodd" d="M92.0234 164.851C91.0235 164.488 89.9327 164.306 88.7509 164.306C87.5692 164.306 86.4784 164.488 85.4785 164.851C84.4785 165.215 83.6604 165.67 82.8423 166.397C82.1151 167.124 81.4788 167.942 81.0243 168.942C80.5697 169.942 80.3879 170.942 80.3879 172.124C80.3879 173.306 80.5697 174.397 81.0243 175.397C81.4788 176.306 82.1151 177.215 82.8423 177.851C83.6604 178.578 84.4785 179.033 85.4785 179.396C86.4784 179.76 87.5692 179.942 88.7509 179.942C89.9327 179.942 91.0235 179.76 92.0234 179.396C93.0233 179.033 93.9323 178.578 94.7505 177.851C95.4777 177.215 96.0231 176.306 96.4776 175.397C96.9321 174.397 97.2048 173.306 97.2048 172.124C97.2048 170.942 96.9321 169.942 96.4776 168.942C96.0231 167.942 95.4777 167.124 94.7505 166.397C93.9323 165.67 93.0233 165.215 92.0234 164.851ZM91.7508 175.033C90.9327 175.851 89.9328 176.215 88.7511 176.215C87.5693 176.306 86.5694 175.851 85.8422 175.124C85.0241 174.306 84.6605 173.306 84.6605 172.124C84.6605 170.942 85.0241 170.033 85.8422 169.215C86.5694 168.397 87.5693 167.942 88.7511 167.942C89.9328 168.033 90.9327 168.397 91.7508 169.215C92.4781 170.033 92.9326 170.942 92.9326 172.124C92.9326 173.306 92.4781 174.306 91.7508 175.033Z" fill="#D9232E"/>
<path fill-rule="evenodd" clip-rule="evenodd" d="M100.114 164.761H106.568C107.477 164.761 108.113 164.852 108.658 165.033C109.204 165.124 109.658 165.397 110.113 165.67C110.477 166.033 110.84 166.397 111.113 166.942C111.386 167.397 111.476 167.942 111.476 168.579C111.476 169.215 111.295 169.76 110.931 170.306C110.567 170.851 110.113 171.306 109.477 171.579C109.84 171.669 110.113 171.76 110.477 171.942C110.84 172.124 111.113 172.306 111.386 172.488L111.386 172.488L111.386 172.488C111.749 172.851 112.022 173.306 112.204 173.76C112.385 174.215 112.476 174.669 112.476 175.215C112.476 175.942 112.385 176.578 112.113 177.124C111.84 177.669 111.386 178.124 110.931 178.487C110.567 178.851 110.022 179.033 109.477 179.215C108.931 179.396 108.295 179.396 107.659 179.396H100.114V164.761ZM104.204 170.579H106.113H106.75L106.75 170.579C106.931 170.488 107.113 170.397 107.204 170.306C107.386 170.215 107.568 170.124 107.659 169.942C107.749 169.761 107.749 169.579 107.749 169.306V169.306C107.749 169.124 107.749 168.942 107.659 168.761C107.568 168.579 107.477 168.397 107.295 168.306C107.204 168.215 107.022 168.124 106.84 168.124C106.81 168.124 106.76 168.114 106.692 168.101C106.558 168.074 106.356 168.033 106.113 168.033H104.204V170.579ZM106.204 176.215H104.204V173.215H106.295C106.431 173.26 106.568 173.283 106.704 173.306C106.84 173.328 106.977 173.351 107.113 173.397C107.386 173.397 107.568 173.487 107.749 173.578C107.795 173.669 107.863 173.737 107.931 173.806C107.999 173.874 108.068 173.942 108.113 174.033C108.204 174.215 108.204 174.397 108.204 174.669C108.204 174.851 108.204 175.124 108.113 175.306C108.059 175.468 107.973 175.566 107.893 175.657C107.838 175.719 107.786 175.777 107.749 175.851C107.659 175.896 107.545 175.942 107.431 175.987C107.318 176.033 107.204 176.078 107.113 176.124C106.987 176.124 106.86 176.143 106.724 176.164C106.568 176.189 106.399 176.215 106.204 176.215Z" fill="#D9232E"/>
<path d="M126.566 165.215V169.215C126.112 168.851 125.566 168.579 125.021 168.306C124.476 168.124 123.839 167.942 123.203 167.942C121.839 167.942 120.839 168.397 120.112 169.215C119.385 170.033 119.021 170.942 119.021 172.124C119.021 173.306 119.476 174.306 120.203 175.124C121.021 175.851 122.021 176.215 123.294 176.215C123.93 176.215 124.476 176.124 125.021 175.942C125.566 175.76 126.112 175.397 126.566 174.942V179.033C125.93 179.305 125.385 179.487 124.748 179.669C124.112 179.851 123.476 179.942 122.748 179.942C121.658 179.851 120.567 179.669 119.567 179.305C118.567 178.942 117.749 178.396 117.112 177.76C116.385 177.124 115.749 176.306 115.385 175.306C114.931 174.397 114.749 173.306 114.749 172.215C114.749 170.942 115.022 169.76 115.476 168.76C115.931 167.76 116.476 166.942 117.294 166.215C118.021 165.579 118.84 165.124 119.749 164.761C120.658 164.488 121.567 164.306 122.567 164.306C123.294 164.306 124.021 164.397 124.657 164.579C125.294 164.67 125.93 164.942 126.566 165.215V165.215Z" fill="#D9232E"/>
<path d="M130.021 164.761H134.111V170.488L139.565 164.761H144.747L138.111 171.306L145.11 179.396H139.838L134.747 173.397L134.111 174.033V179.396H130.021V164.761Z" fill="#D9232E"/>
<path d="M147.11 164.761H151.292V173.851L158.018 164.761H162.2V179.396H158.018V170.397L151.292 179.396H147.11V164.761Z" fill="#D9232E"/>
<path fill-rule="evenodd" clip-rule="evenodd" d="M179.381 158.761L176.744 157.488C176.563 158.124 176.199 158.579 175.744 159.034C175.199 159.397 174.563 159.579 173.836 159.579C173.108 159.579 172.563 159.397 172.017 159.034C171.472 158.579 171.108 158.124 171.018 157.488L168.29 158.761C168.654 159.852 169.381 160.761 170.381 161.306C171.472 161.943 172.563 162.215 173.836 162.215C175.108 162.215 176.29 161.943 177.29 161.397C178.29 160.761 179.017 159.852 179.381 158.761ZM170.472 164.761H166.381V179.396H170.472L177.29 170.397V179.396H181.38V164.761H177.29L170.472 173.851V164.761Z" fill="#D9232E"/>
<path d="M30.3009 193.487H25.2104V212.213H20.8471V193.487H15.7566V189.669H30.3009V193.487Z" fill="#D9232E"/>
<path fill-rule="evenodd" clip-rule="evenodd" d="M34.4826 220.031V210.304C35.028 211.122 35.7552 211.759 36.5733 212.122C37.3005 212.486 38.2095 212.668 39.2095 212.668C41.3002 212.668 43.1183 211.941 44.4818 210.486C45.8453 209.032 46.4816 207.123 46.4816 204.85C46.4816 202.668 45.8453 200.85 44.4818 199.396C43.1183 197.85 41.3911 197.123 39.3004 197.123C38.2095 197.123 37.3005 197.305 36.4824 197.759C35.6643 198.123 35.028 198.759 34.4826 199.486V197.577H30.392V220.031H34.4826ZM35.2097 201.941C35.937 201.214 36.9369 200.759 38.1186 200.759C39.3003 200.759 40.3003 201.214 41.0275 202.032C41.8456 202.759 42.2092 203.759 42.2092 204.941C42.2092 206.123 41.8456 207.123 41.0275 207.85C40.3003 208.668 39.3003 209.032 38.1186 209.032C36.9369 209.032 36.0279 208.668 35.2097 207.85C34.4825 207.123 34.1189 206.123 34.1189 204.941C34.028 203.759 34.4825 202.759 35.2097 201.941Z" fill="#D9232E"/>
<path fill-rule="evenodd" clip-rule="evenodd" d="M60.935 197.577V199.486C60.3896 198.759 59.7533 198.123 58.9351 197.759C58.2079 197.305 57.208 197.123 56.2081 197.123C54.0264 197.123 52.2993 197.85 50.9358 199.396C49.5722 200.85 48.9359 202.668 48.9359 204.941C48.9359 207.123 49.6631 208.941 51.0267 210.486C52.3902 211.941 54.2082 212.668 56.3899 212.668C57.3898 212.668 58.2079 212.486 58.9351 212.122C59.7533 211.759 60.3896 211.122 60.935 210.304V212.213H65.0256V197.577H60.935ZM54.2992 201.941C55.1173 201.214 56.0263 200.759 57.2989 200.759C58.4806 200.759 59.3897 201.214 60.2078 201.941C60.935 202.759 61.2986 203.759 61.2986 204.941C61.2986 206.123 60.935 207.123 60.1169 207.85C59.3897 208.668 58.4806 209.032 57.2989 209.032C56.0263 209.032 55.1173 208.668 54.2992 207.85C53.5719 207.123 53.2083 206.123 53.2083 204.941C53.2083 203.759 53.5719 202.759 54.2992 201.941Z" fill="#D9232E"/>
<path d="M68.8434 212.213V197.577H73.0249V202.759H78.7517V197.577H82.9332V212.213H78.7517V206.304H73.0249V212.213H68.8434Z" fill="#D9232E"/>
<path d="M97.8411 198.032V202.032C97.3866 201.668 96.8412 201.305 96.2958 201.123C95.7504 200.85 95.205 200.759 94.4778 200.759C93.2051 200.759 92.1143 201.214 91.3871 202.032C90.6599 202.759 90.2963 203.759 90.3872 204.85C90.3872 206.123 90.7508 207.123 91.5689 207.85C92.387 208.668 93.3869 209.032 94.6596 209.032C95.205 209.032 95.7504 208.941 96.2958 208.759C96.8412 208.486 97.3866 208.213 97.8411 207.759V211.759C97.2957 212.122 96.6594 212.304 96.0231 212.486C95.3868 212.668 94.7505 212.668 94.1142 212.668C92.9324 212.668 91.9325 212.486 90.9326 212.122C89.9327 211.759 89.1145 211.213 88.3873 210.577C87.6601 209.941 87.1147 209.122 86.6602 208.122C86.2966 207.213 86.1148 206.123 86.1148 204.941C86.1148 203.759 86.2966 202.577 86.7511 201.577C87.2056 200.577 87.8419 199.759 88.66 199.032C89.3873 198.396 90.1145 197.941 91.1144 197.577C91.9325 197.305 92.9324 197.123 93.9324 197.123C94.6596 197.123 95.3868 197.214 96.0231 197.305C96.6594 197.487 97.2957 197.668 97.8411 198.032V198.032Z" fill="#D9232E"/>
<path d="M101.386 197.577H115.294V212.213H111.113V201.123H105.477V212.213H101.386V197.577Z" fill="#D9232E"/>
<path fill-rule="evenodd" clip-rule="evenodd" d="M129.748 197.668C128.748 197.305 127.748 197.123 126.566 197.123C125.385 197.123 124.294 197.305 123.294 197.668C122.294 198.032 121.385 198.487 120.658 199.214C119.84 199.85 119.294 200.759 118.84 201.759C118.385 202.668 118.113 203.759 118.113 204.941C118.113 206.123 118.385 207.213 118.84 208.122C119.294 209.122 119.84 209.941 120.658 210.668C121.385 211.304 122.294 211.85 123.294 212.213C124.294 212.577 125.385 212.668 126.566 212.668C127.748 212.668 128.839 212.577 129.748 212.213C130.839 211.85 131.657 211.304 132.475 210.668C133.202 209.941 133.839 209.122 134.293 208.122C134.748 207.213 134.929 206.123 134.929 204.941C134.929 203.759 134.748 202.668 134.293 201.759C133.839 200.759 133.202 199.85 132.475 199.214C131.657 198.487 130.839 198.032 129.748 197.668ZM129.475 207.85C128.748 208.668 127.748 209.032 126.566 209.032C125.385 209.123 124.385 208.668 123.567 207.85C122.839 207.032 122.385 206.123 122.385 204.941C122.385 203.759 122.839 202.759 123.567 202.032C124.385 201.214 125.385 200.759 126.566 200.759C127.748 200.759 128.748 201.214 129.475 202.032C130.293 202.85 130.657 203.759 130.657 204.941C130.657 206.123 130.293 207.032 129.475 207.85Z" fill="#D9232E"/>
<path fill-rule="evenodd" clip-rule="evenodd" d="M142.02 220.031V210.304C142.565 211.122 143.201 211.759 144.019 212.122C144.838 212.486 145.747 212.668 146.656 212.668C148.837 212.668 150.564 211.941 151.928 210.486C153.291 209.032 154.019 207.123 154.019 204.941C154.019 202.668 153.291 200.85 152.019 199.396C150.655 197.85 148.928 197.123 146.747 197.123C145.747 197.123 144.747 197.305 143.929 197.759C143.201 198.123 142.474 198.759 142.02 199.486V197.577H137.838V220.031H142.02ZM142.747 201.941C143.474 201.214 144.474 200.759 145.656 200.759C146.838 200.759 147.837 201.214 148.565 202.032C149.383 202.759 149.746 203.759 149.746 204.85C149.746 206.123 149.292 207.123 148.565 207.85C147.837 208.668 146.838 209.032 145.656 209.032C144.474 209.032 143.474 208.668 142.747 207.85C141.929 207.123 141.565 206.123 141.565 204.941C141.565 203.759 141.929 202.759 142.747 201.941Z" fill="#D9232E"/>
<path d="M167.654 201.123H163.654V212.213H159.473V201.123H155.382V197.577H167.654V201.123Z" fill="#D9232E"/>
<rect x="219.129" width="5.40433" height="145.922" fill="#D9232E"/>
</svg>
