<svg width="121" height="40" viewBox="0 0 121 40" fill="none" xmlns="http://www.w3.org/2000/svg">
<path d="M110.983 7.92969e-06H10.2256C9.85835 7.92969e-06 9.49549 7.92951e-06 9.12918 0.00200793C8.82255 0.00400793 8.51837 0.00981793 8.2088 0.0147079C7.53626 0.0226097 6.8653 0.0816842 6.20176 0.191418C5.53915 0.303541 4.89729 0.514924 4.2979 0.818418C3.69925 1.12448 3.15224 1.52218 2.67672 1.99708C2.19871 2.47064 1.80025 3.01802 1.49666 3.61817C1.19223 4.21712 0.981143 4.85895 0.87068 5.52149C0.759166 6.18319 0.69916 6.85253 0.691199 7.52349C0.681905 7.83009 0.680923 8.13771 0.676025 8.44435V31.5586C0.680923 31.8691 0.681905 32.1699 0.691199 32.4805C0.699162 33.1514 0.759169 33.8207 0.87068 34.4824C0.980838 35.1453 1.19194 35.7875 1.49666 36.3867C1.80011 36.9849 2.19863 37.5301 2.67672 38.001C3.15044 38.478 3.6978 38.876 4.2979 39.1797C4.89729 39.484 5.53907 39.6967 6.20176 39.8105C6.86542 39.9194 7.5363 39.9785 8.2088 39.9873C8.51837 39.9941 8.82255 39.998 9.12918 39.998C9.49548 40 9.85837 40 10.2256 40H110.983C111.343 40 111.709 40 112.069 39.998C112.374 39.998 112.687 39.9941 112.992 39.9873C113.663 39.9789 114.333 39.9198 114.995 39.8105C115.66 39.6959 116.304 39.4833 116.907 39.1797C117.506 38.8758 118.053 38.4779 118.526 38.001C119.003 37.5282 119.402 36.9835 119.71 36.3867C120.012 35.7871 120.221 35.145 120.33 34.4824C120.441 33.8206 120.504 33.1515 120.516 32.4805C120.52 32.1699 120.52 31.8691 120.52 31.5586C120.527 31.1953 120.527 30.834 120.527 30.4648V9.53614C120.527 9.16993 120.527 8.80665 120.52 8.44435C120.52 8.13771 120.52 7.83009 120.516 7.52345C120.504 6.85243 120.441 6.18324 120.33 5.52145C120.221 4.85929 120.012 4.21751 119.71 3.61813C119.091 2.4152 118.111 1.43603 116.907 0.818328C116.304 0.515575 115.66 0.304248 114.995 0.191328C114.333 0.0811107 113.663 0.0220157 112.992 0.0145679C112.687 0.00968793 112.374 0.00382793 112.069 0.00187793C111.709 -0.00012207 111.343 -0.00012207 110.983 -0.00012207V7.92969e-06Z" fill="#A6A6A6"/>
<path d="M9.13396 39.125C8.82881 39.125 8.53102 39.1211 8.22826 39.1143C7.60106 39.1061 6.97533 39.0516 6.35619 38.9512C5.77888 38.8519 5.21962 38.6673 4.69686 38.4033C4.17889 38.1415 3.70646 37.7983 3.29767 37.3867C2.88297 36.98 2.5377 36.5082 2.27557 35.9902C2.01054 35.4688 1.82713 34.9099 1.73172 34.333C1.62868 33.7131 1.57293 33.0863 1.56496 32.458C1.55861 32.2471 1.55029 31.5449 1.55029 31.5449V8.44434C1.55029 8.44434 1.55915 7.75293 1.56501 7.5498C1.57264 6.92248 1.62807 6.29665 1.73079 5.67773C1.82638 5.09925 2.00994 4.53875 2.27511 4.01563C2.53628 3.49794 2.87962 3.02586 3.29183 2.61768C3.70358 2.20562 4.17752 1.8606 4.69637 1.59521C5.21793 1.33209 5.77613 1.14873 6.35228 1.05127C6.97344 0.949836 7.60135 0.894996 8.23072 0.88721L9.13445 0.875H112.064L112.978 0.8877C113.602 0.895099 114.224 0.94945 114.84 1.05029C115.422 1.14898 115.986 1.33362 116.513 1.59814C117.553 2.13299 118.398 2.97916 118.932 4.01807C119.193 4.53758 119.374 5.09351 119.468 5.66699C119.572 6.29099 119.63 6.92174 119.642 7.5542C119.645 7.8374 119.645 8.1416 119.645 8.44434C119.653 8.81934 119.653 9.17627 119.653 9.53613V30.4648C119.653 30.8281 119.653 31.1826 119.645 31.54C119.645 31.8652 119.645 32.1631 119.641 32.4697C119.629 33.0909 119.572 33.7104 119.47 34.3232C119.376 34.9043 119.194 35.4675 118.929 35.9932C118.665 36.5056 118.322 36.9733 117.912 37.3789C117.503 37.7927 117.029 38.1379 116.51 38.4014C115.984 38.6674 115.421 38.8527 114.84 38.9512C114.221 39.0522 113.595 39.1067 112.968 39.1143C112.674 39.1211 112.367 39.125 112.069 39.125L110.983 39.127L9.13396 39.125Z" fill="black"/>
<path d="M25.4836 20.3007C25.5054 18.6042 26.3962 17.0372 27.8438 16.1486C26.9264 14.8405 25.445 14.0409 23.8464 13.991C22.1645 13.8147 20.534 14.9958 19.677 14.9958C18.8033 14.9958 17.4838 14.0085 16.0628 14.0376C14.1932 14.098 12.4925 15.1335 11.5829 16.7655C9.64589 20.1139 11.0907 25.035 12.9462 27.7416C13.8746 29.0669 14.9596 30.5474 16.3792 30.4949C17.7685 30.4374 18.2873 29.6104 19.9642 29.6104C21.6256 29.6104 22.1124 30.4949 23.5609 30.4615C25.0516 30.4374 25.9908 29.1303 26.8866 27.7924C27.5536 26.848 28.0669 25.8043 28.4074 24.6999C26.6369 23.9522 25.4856 22.22 25.4836 20.3007Z" fill="white"/>
<path d="M22.7477 12.2109C23.5605 11.2367 23.961 9.98451 23.864 8.72028C22.6222 8.8505 21.4752 9.44306 20.6514 10.3799C19.838 11.3042 19.4259 12.5134 19.5059 13.7413C20.7643 13.7542 21.9592 13.1902 22.7477 12.2109Z" fill="white"/>
<path fill-rule="evenodd" clip-rule="evenodd" d="M38.3035 27.1396H43.0443L44.1818 30.4961H46.2241L41.7337 18.0781H39.6474L35.157 30.4961H37.165L38.3035 27.1396ZM42.5524 25.5908H38.7945L40.648 20.1435H40.6999L42.5524 25.5908Z" fill="white"/>
<path fill-rule="evenodd" clip-rule="evenodd" d="M52.1376 30.5908C54.4136 30.5908 55.9218 28.7832 55.9218 25.9697C55.9218 23.1641 54.4048 21.3477 52.1034 21.3477C50.9191 21.3095 49.8098 21.9245 49.216 22.9482H49.1818V21.4424H47.3801V33.4912H49.2414V29.0068H49.2845C49.853 30.037 50.9611 30.6523 52.1376 30.5908ZM51.6123 22.9316C53.0599 22.9316 54.0087 24.1367 54.0087 25.9697C54.0087 27.8193 53.0599 29.0156 51.6123 29.0156C50.1902 29.0156 49.2336 27.794 49.2336 25.9697C49.2336 24.1621 50.1902 22.9316 51.6123 22.9316Z" fill="white"/>
<path fill-rule="evenodd" clip-rule="evenodd" d="M62.1181 30.5908C64.3941 30.5908 65.9023 28.7832 65.9023 25.9697C65.9023 23.1641 64.3853 21.3477 62.0838 21.3477C60.8996 21.3095 59.7902 21.9245 59.1965 22.9482H59.1622V21.4424H57.3606V33.4912H59.2219V29.0068H59.265C59.8335 30.037 60.9416 30.6523 62.1181 30.5908ZM61.5928 22.9316C63.0404 22.9316 63.9891 24.1367 63.9891 25.9697H63.9892C63.9892 27.8193 63.0404 29.0156 61.5928 29.0156C60.1707 29.0156 59.2141 27.7939 59.2141 25.9697C59.2141 24.1621 60.1707 22.9316 61.5928 22.9316Z" fill="white"/>
<path d="M72.4986 27.0361C72.6365 28.2676 73.8347 29.0761 75.472 29.0761C77.0409 29.0761 78.1696 28.2675 78.1696 27.1572C78.1696 26.1933 77.4888 25.6162 75.8769 25.2207L74.265 24.833C71.9812 24.2822 70.921 23.2158 70.921 21.4853C70.921 19.3427 72.7911 17.871 75.4466 17.871C78.0747 17.871 79.8763 19.3427 79.937 21.4853H78.0581C77.9456 20.246 76.9196 19.498 75.4201 19.498C73.9207 19.498 72.8947 20.2548 72.8947 21.3564C72.8947 22.2343 73.55 22.7509 75.1531 23.1464L76.5234 23.4823C79.0753 24.0849 80.1355 25.1083 80.1355 26.9247C80.1355 29.248 78.282 30.703 75.3341 30.703C72.5758 30.703 70.7136 29.2821 70.5933 27.036L72.4986 27.0361Z" fill="white"/>
<path d="M84.1524 19.2998V21.4424H85.8768V22.9141H84.1524V27.9053C84.1524 28.6807 84.4977 29.042 85.2557 29.042C85.4604 29.0384 85.6648 29.0241 85.868 28.999V30.4619C85.5272 30.5255 85.1808 30.5543 84.8342 30.5478C82.9983 30.5478 82.2823 29.8593 82.2823 28.1035V22.9141H80.9639V21.4424H82.2823V19.2998H84.1524Z" fill="white"/>
<path fill-rule="evenodd" clip-rule="evenodd" d="M91.1762 21.3311C88.5558 21.3311 86.8755 23.1211 86.8755 25.9697C86.8755 28.8262 88.5392 30.6084 91.1762 30.6084C93.8141 30.6084 95.4778 28.8262 95.4778 25.9697C95.4778 23.1211 93.8053 21.3311 91.1762 21.3311ZM91.1761 22.8623C92.6844 22.8623 93.5813 24.0156 93.5813 25.9697H93.5812C93.5812 27.9316 92.6844 29.0762 91.1761 29.0762C89.6679 29.0762 88.772 27.9316 88.772 25.9697C88.772 24.0244 89.6679 22.8623 91.1761 22.8623Z" fill="white"/>
<path d="M97.0125 21.4424H98.7877V22.9834H98.8308C99.0783 21.9914 99.9887 21.3086 101.012 21.3476C101.226 21.3469 101.44 21.3701 101.65 21.417V23.1552C101.379 23.0726 101.096 23.0347 100.813 23.0429C100.266 23.0208 99.7365 23.2385 99.3636 23.639C98.9907 24.0395 98.8118 24.5827 98.8738 25.1259V30.4961H97.0125L97.0125 21.4424Z" fill="white"/>
<path fill-rule="evenodd" clip-rule="evenodd" d="M106.327 30.6084C108.378 30.6084 109.981 29.4805 110.231 27.8369L108.464 27.8369C108.125 28.677 107.273 29.1948 106.37 29.1103C105.693 29.1352 105.037 28.8684 104.57 28.3778C104.104 27.8871 103.871 27.2199 103.93 26.5459V26.4336H110.335V25.7969C110.335 23.0518 108.757 21.3311 106.249 21.3311C103.698 21.3311 102.052 23.1729 102.052 26.0127C102.052 28.8437 103.689 30.6084 106.327 30.6084ZM108.473 25.1348L103.939 25.1348C103.938 24.5235 104.181 23.9369 104.614 23.5054C105.048 23.0739 105.636 22.8333 106.249 22.8369C106.856 22.8239 107.441 23.0644 107.863 23.5006C108.286 23.9368 108.506 24.5291 108.473 25.1348Z" fill="white"/>
<path d="M37.4719 11.2534H38.271C38.5491 11.288 38.829 11.2049 39.043 11.0243C39.257 10.8436 39.3857 10.5818 39.3978 10.3023C39.3978 9.75197 38.983 9.3965 38.2798 9.3965C37.9951 9.35678 37.7064 9.43365 37.4792 9.60965C37.2521 9.78564 37.1059 10.0458 37.0738 10.3311H36.1964C36.227 9.81298 36.4717 9.33084 36.8721 8.99993C37.2726 8.66901 37.7927 8.51907 38.3081 8.58595C39.4848 8.58595 40.3133 9.24366 40.3133 10.1904C40.319 10.8441 39.8665 11.4128 39.2276 11.5552V11.6255C39.9928 11.6594 40.5868 12.3042 40.5568 13.0684C40.5019 13.6015 40.2342 14.09 39.8143 14.4238C39.3943 14.7575 38.8574 14.9084 38.3248 14.8423C37.7909 14.915 37.2504 14.768 36.8272 14.4351C36.4039 14.1022 36.1343 13.6119 36.0801 13.0767H36.9711C37.0249 13.6475 37.5502 14.0157 38.3248 14.0157C39.0994 14.0157 39.6051 13.6021 39.6051 13.0191C39.6051 12.4278 39.1288 12.0635 38.2964 12.0635H37.4719V11.2534Z" fill="white"/>
<path fill-rule="evenodd" clip-rule="evenodd" d="M43.2465 12.0801C42.1745 12.1465 41.5691 12.6138 41.5691 13.4243C41.5706 13.8087 41.7349 14.1744 42.0213 14.4312C42.3077 14.6879 42.6896 14.8117 43.0724 14.772C43.6186 14.7972 44.1361 14.5271 44.4271 14.065H44.4975V14.6978H45.3553V11.6211C45.3553 10.6699 44.7176 10.1079 43.5869 10.1079C42.5638 10.1079 41.8342 10.604 41.7432 11.3775H42.6049C42.7047 11.0591 43.048 10.877 43.5448 10.877C44.1542 10.877 44.4682 11.1455 44.4682 11.6211V12.0098L43.2465 12.0801ZM44.4682 12.6631V13.0396C44.4487 13.3266 44.3134 13.5934 44.0932 13.779C43.8731 13.9645 43.5869 14.0529 43.3003 14.0239C42.8161 14.0239 42.464 13.7881 42.464 13.3828C42.464 12.9859 42.7457 12.7749 43.3668 12.7334L44.4682 12.6631Z" fill="white"/>
<path d="M47.7175 10.9429V14.6978H46.8274V10.1948H49.7969V10.9428L47.7175 10.9429Z" fill="white"/>
<path fill-rule="evenodd" clip-rule="evenodd" d="M53.3276 14.772C54.4661 14.772 55.1909 13.875 55.1909 12.4444C55.1909 11.0132 54.4661 10.1201 53.3188 10.1202C52.7301 10.1057 52.183 10.422 51.9026 10.939H51.8361V10.1948H50.9792V16.1948H51.8693V14.0156H51.9397C52.2156 14.5159 52.757 14.8109 53.3276 14.772ZM53.0704 10.9185C53.8245 10.9185 54.2754 11.4932 54.2754 12.4444C54.2754 13.3994 53.8245 13.9741 53.0665 13.9741C52.3212 13.9741 51.8527 13.3867 51.8527 12.4483C51.8527 11.5054 52.3212 10.9185 53.0704 10.9185Z" fill="white"/>
<path d="M56.3765 16.3106V15.5454C56.4728 15.5576 56.5699 15.5632 56.6669 15.562C57.0596 15.5911 57.4112 15.3202 57.4827 14.9336L57.5492 14.7144L55.9167 10.1948H56.886L58.0167 13.7715H58.0872L59.2139 10.1948H60.1578L58.4765 14.8838C58.0911 15.9795 57.6646 16.3311 56.7452 16.3311C56.6709 16.3311 56.4596 16.3228 56.3765 16.3106Z" fill="white"/>
<path d="M60.8511 13.4199H61.7372C61.8243 13.8169 62.1969 14.0239 62.7183 14.0239C63.311 14.0239 63.6748 13.7632 63.6748 13.3579C63.6748 12.9238 63.3481 12.7168 62.7183 12.7168H62.0434V12.0264H62.7065C63.2445 12.0264 63.5183 11.8198 63.5183 11.4434C63.5183 11.1128 63.2533 10.8604 62.7065 10.8604C62.2087 10.8604 61.8448 11.0713 61.7871 11.4268H60.9293C61.0627 10.5771 61.8531 9.99051 62.7065 10.1079C63.7785 10.1079 64.3918 10.5918 64.3918 11.3526C64.4021 11.7891 64.1052 12.1735 63.6797 12.2745V12.3448C64.1886 12.4103 64.5677 12.8457 64.562 13.3579C64.562 14.2139 63.8323 14.7803 62.7183 14.7803C61.7333 14.7803 60.9332 14.3296 60.8511 13.4199Z" fill="white"/>
<path d="M65.8438 14.6978V10.1948H66.726V13.292H66.7964L68.8749 10.1948H69.7571V14.6978H68.8749V11.584H68.8083L66.726 14.6978L65.8438 14.6978Z" fill="white"/>
<path d="M74.6172 10.9429H73.197V14.6978H72.306V10.9429H70.8857V10.1949H74.6172V10.9429Z" fill="white"/>
<path fill-rule="evenodd" clip-rule="evenodd" d="M77.4568 14.7847C78.3384 14.8798 79.1617 14.3312 79.412 13.482L78.5543 13.4819C78.3409 13.8641 77.9174 14.0798 77.4823 14.0278C77.1463 14.0319 76.8243 13.8941 76.5956 13.6484C76.3668 13.4027 76.2527 13.072 76.2812 12.7378V12.688H79.4658V12.3779C79.4658 10.9639 78.7078 10.1079 77.4529 10.1079C76.85 10.1028 76.2745 10.3591 75.8756 10.8105C75.4766 11.2618 75.2934 11.8638 75.3735 12.4605C75.2913 13.0555 75.4751 13.6565 75.8763 14.1041C76.2775 14.5517 76.8555 14.8005 77.4568 14.7847ZM78.5581 12.0308H76.2812C76.2768 11.7202 76.3984 11.421 76.6184 11.2013C76.8383 10.9816 77.1379 10.8601 77.449 10.8643C77.7557 10.8575 78.051 10.9803 78.2622 11.2024C78.4734 11.4245 78.5809 11.7253 78.5581 12.0308Z" fill="white"/>
<path fill-rule="evenodd" clip-rule="evenodd" d="M83.1853 10.1948H85.2188C86.101 10.1948 86.6184 10.6411 86.6184 11.3398C86.6212 11.7967 86.3035 12.1933 85.8565 12.291V12.3613C86.4035 12.3958 86.8275 12.8522 86.8209 13.3994C86.8209 14.185 86.2291 14.6977 85.2393 14.6977H83.1853V10.1948ZM84.0675 10.877V12.043H84.9498C85.4877 12.043 85.745 11.8364 85.745 11.4556C85.745 11.1045 85.521 10.8769 85.0486 10.8769L84.0675 10.877ZM84.0675 14.0156V12.6963L85.0114 12.6963C85.612 12.6963 85.9308 12.9072 85.9308 13.3579C85.9308 13.7837 85.6492 14.0156 85.1229 14.0156H84.0675Z" fill="white"/>
</svg>
