<svg width="48" height="32" viewBox="0 0 48 32" fill="none" xmlns="http://www.w3.org/2000/svg">
<path fill-rule="evenodd" clip-rule="evenodd" d="M43.7014 0H4.29862C4.13451 0 3.97012 0 3.8063 0.000996555C3.66783 0.00202331 3.52968 0.00362383 3.39152 0.00754966C3.09022 0.0160355 2.78634 0.0345472 2.4888 0.0902335C2.18651 0.146886 1.90522 0.239294 1.6308 0.384791C1.36102 0.52766 1.11403 0.71453 0.899987 0.937516C0.685856 1.1605 0.506408 1.41728 0.369241 1.69852C0.229494 1.98429 0.140698 2.27731 0.086672 2.59234C0.0329073 2.90227 0.0150147 3.21866 0.00689488 3.53209C0.00318297 3.67596 0.001588 3.81982 0.000689024 3.96366C-0.000267954 4.13461 5.10388e-05 4.30545 5.10388e-05 4.4767V27.5236C5.10388e-05 27.6949 -0.000267954 27.8654 0.000689024 28.0367C0.001588 28.1805 0.00318297 28.3244 0.00689488 28.4683C0.0150147 28.7814 0.0329073 29.0978 0.086672 29.4077C0.140698 29.7228 0.229494 30.0157 0.369241 30.3015C0.506408 30.5827 0.685856 30.8399 0.899987 31.0625C1.11403 31.2859 1.36102 31.4727 1.6308 31.6152C1.90522 31.7611 2.18651 31.8535 2.4888 31.9102C2.78634 31.9655 3.09022 31.9843 3.39152 31.9928C3.52968 31.9961 3.66783 31.998 3.8063 31.9987C3.97012 32 4.13451 32 4.29862 32H43.7014C43.8652 32 44.0296 32 44.1934 31.9987C44.3316 31.998 44.4697 31.9961 44.6085 31.9928C44.9092 31.9843 45.213 31.9655 45.5113 31.9102C45.8132 31.8535 46.0945 31.7611 46.369 31.6152C46.639 31.4727 46.8853 31.2859 47.0998 31.0625C47.3136 30.8399 47.493 30.5827 47.6305 30.3015C47.7706 30.0157 47.8593 29.7228 47.9131 29.4077C47.9669 29.0978 47.9843 28.7814 47.9925 28.4683C47.9962 28.3244 47.9981 28.1805 47.9987 28.0367C48 27.8654 48 27.6949 48 27.5236V4.4767C48 4.30545 48 4.13461 47.9987 3.96366C47.9981 3.81982 47.9962 3.67596 47.9925 3.53209C47.9843 3.21866 47.9669 2.90227 47.9131 2.59234C47.8593 2.27731 47.7706 1.98429 47.6305 1.69852C47.493 1.41728 47.3136 1.1605 47.0998 0.937516C46.8853 0.71453 46.639 0.52766 46.369 0.384791C46.0945 0.239294 45.8132 0.146886 45.5113 0.0902335C45.213 0.0345472 44.9092 0.0160355 44.6085 0.00754966C44.4697 0.00362383 44.3316 0.00202331 44.1934 0.000996555C44.0296 0 43.8652 0 43.7014 0Z" fill="url(#paint0_radial_1_466)"/>
<defs>
<radialGradient id="paint0_radial_1_466" cx="0" cy="0" r="1" gradientUnits="userSpaceOnUse" gradientTransform="translate(48 32) rotate(-146.31) scale(57.2777 52.8717)">
<stop stop-color="#A04EEE"/>
<stop offset="1" stop-color="#E07CB0"/>
</radialGradient>
</defs>
</svg>
