<svg width="144" height="48" viewBox="0 0 144 48" fill="none" xmlns="http://www.w3.org/2000/svg">
<mask id="mask0_18_408" style="mask-type:alpha" maskUnits="userSpaceOnUse" x="0" y="0" width="144" height="48">
<rect width="144" height="48" fill="white"/>
</mask>
<g mask="url(#mask0_18_408)">
<path fill-rule="evenodd" clip-rule="evenodd" d="M0 0.0255133C12.6822 0.605408 22.8216 11.1142 22.8216 23.9484C22.8216 31.4913 28.9544 37.6294 36.4935 37.6294C44.0327 37.6294 50.1654 31.4919 50.1654 23.9479C50.1654 16.4013 44.0306 10.2659 36.4925 10.2659V6.84074C45.9164 6.84074 53.5842 14.5144 53.5842 23.9479C53.5842 33.3793 45.917 41.0524 36.4935 41.0524C27.0696 41.0524 19.4028 33.3788 19.4028 23.9484H19.4044C19.4044 12.999 10.7964 4.02525 0 3.44801V0.0249817V0.0255133ZM0 10.184V6.7929C9.02 7.27606 16.2052 14.6685 16.2052 23.6848C16.2052 34.8787 25.4367 43.9849 36.7827 43.9849V43.9827C48.1286 43.9827 57.3612 34.8772 57.3612 23.6853H57.3596L57.3612 23.6827C57.3612 10.6247 68.13 0 81.3676 0C94.6053 0 105.373 10.6247 105.373 23.6827H101.945C101.945 12.4893 92.7136 3.38157 81.3676 3.38157C70.0206 3.38157 60.7885 12.4893 60.7885 23.6827H60.7906L60.7885 23.6853C60.7885 36.7428 50.0198 47.3659 36.7827 47.3659V47.3685C23.5429 47.3685 12.7763 36.7428 12.7763 23.6853C12.7763 16.5337 7.12617 10.6619 0 10.184ZM0 13.986C4.92937 14.6531 8.74201 18.8878 8.74201 24H5.37532C5.37532 20.7502 3.06372 18.0315 0 17.3995V13.986ZM144.044 0.0132882V3.42409C143.773 3.41346 143.501 3.40815 143.23 3.40815V3.40868C131.868 3.40868 122.625 12.5908 122.625 23.8724L122.622 23.874C122.622 29.5135 118.001 34.1054 112.321 34.1054V30.6951C116.107 30.6951 119.187 27.634 119.187 23.874L119.191 23.8719C119.191 10.7087 129.974 0 143.23 0C143.502 0 143.774 0.00425221 144.044 0.0132882ZM144.044 6.85562V10.2802C143.813 10.2691 143.581 10.2632 143.347 10.2632C135.763 10.2632 129.596 16.4013 129.596 23.9458L129.599 23.9468C129.599 33.3729 121.898 41.0407 112.429 41.0524C102.96 41.0407 95.2622 33.3719 95.2622 23.9468H95.2612C95.2612 16.4013 89.0928 10.2611 81.5106 10.2611C73.9289 10.2611 67.76 16.4002 67.76 23.9463C67.76 31.4908 73.9289 37.6278 81.5095 37.6278V41.0508C72.0324 41.0508 64.3221 33.3793 64.321 23.9463C64.3221 14.5133 72.033 6.84021 81.5106 6.84021C90.9898 6.84021 98.7002 14.5144 98.7002 23.9468H98.6991C98.6991 31.4844 104.857 37.6188 112.429 37.6283C120.004 37.6188 126.161 31.4844 126.161 23.9468L126.16 23.9458C126.16 14.5144 133.869 6.8418 143.347 6.8418C143.581 6.8418 143.813 6.84659 144.044 6.85562ZM144.044 17.2783C143.717 17.231 143.387 17.2071 143.057 17.2071C139.284 17.2071 136.215 20.2767 136.215 24.0489L136.207 24.0526C136.207 37.2557 125.466 48 112.263 48C99.06 48 88.321 37.2563 88.321 24.0526H91.7398C91.7398 35.3715 100.947 44.5802 112.263 44.5802V44.5796C123.58 44.5796 132.789 35.3715 132.789 24.0526L132.795 24.0489C132.795 18.3913 137.398 13.7862 143.057 13.7862V13.7878V13.7862C143.39 13.7862 143.719 13.8021 144.044 13.833V17.2783ZM36.5302 34.1054C30.9593 34.1054 26.4259 29.5715 26.4259 24.0032H29.7936C29.7936 27.7148 32.817 30.7355 36.5302 30.7355V30.7376C40.245 30.7376 43.2678 27.7159 43.2684 24.0032V23.9979C43.2684 20.2814 40.2466 17.2597 36.5302 17.2597V13.8952C42.1038 13.8952 46.6372 18.4259 46.6366 23.9973H46.6356L46.6366 24.0027C46.6366 29.5731 42.1038 34.107 36.5307 34.1054V34.1032V34.1054H36.5302ZM71.2681 24.0005C71.2681 18.4269 75.802 13.8946 81.3735 13.8946V17.2618C77.6592 17.2618 74.638 20.2841 74.638 24.0005C74.638 27.7159 77.6592 30.7382 81.3735 30.7382V34.1054C75.8015 34.1054 71.2681 29.5725 71.2681 24.0005Z" fill="#D62829"/>
</g>
</svg>
