<svg width="136" height="40" viewBox="0 0 136 40" fill="none" xmlns="http://www.w3.org/2000/svg">
<rect x="0.676025" width="135.211" height="40" rx="5" fill="black"/>
<path fill-rule="evenodd" clip-rule="evenodd" d="M5.68385 0H130.879C133.645 0 135.887 2.23858 135.887 5V35C135.887 37.7614 133.645 40 130.879 40H5.68385C2.91811 40 0.676025 37.7614 0.676025 35V5C0.676025 2.23858 2.91811 0 5.68385 0ZM135.086 5C135.086 2.6804 133.203 0.8 130.879 0.8H5.68385C3.36062 0.8 1.47728 2.6804 1.47728 5V35C1.47728 37.3196 3.36062 39.2 5.68385 39.2H130.879C133.203 39.2 135.086 37.3196 135.086 35V5Z" fill="#A6A6A6"/>
<path fill-rule="evenodd" clip-rule="evenodd" d="M48.4908 23.06V24.86H52.8176C52.7498 25.7078 52.3968 26.5078 51.816 27.13C50.9383 28.0229 49.7227 28.5025 48.4708 28.45C45.8157 28.45 43.6633 26.301 43.6633 23.65C43.6633 20.999 45.8157 18.85 48.4708 18.85C49.6932 18.8319 50.8735 19.2953 51.7559 20.14L53.0279 18.87C51.822 17.6792 50.1867 17.0232 48.4908 17.05C46.066 16.9558 43.7839 18.1937 42.5434 20.2761C41.3029 22.3584 41.3029 24.9516 42.5434 27.0339C43.7839 29.1163 46.066 30.3542 48.4908 30.26C50.2237 30.3291 51.9037 29.656 53.108 28.41C54.1598 27.2564 54.7202 25.7392 54.6705 24.18C54.6741 23.8047 54.6439 23.4299 54.5803 23.06H48.4908ZM59.5882 21.75C57.2318 21.7555 55.326 23.6673 55.3315 26.02C55.3371 28.3727 57.2518 30.2755 59.6082 30.27C61.9646 30.2645 63.8704 28.3527 63.8649 26C63.8814 24.8644 63.4354 23.7707 62.6292 22.9695C61.8229 22.1683 60.7255 21.7282 59.5882 21.75ZM64.6661 26.02C64.6606 23.6673 66.5664 21.7555 68.9228 21.75C70.0601 21.7282 71.1575 22.1683 71.9638 22.9695C72.77 23.7707 73.2159 24.8644 73.1994 26C73.205 28.3527 71.2992 30.2645 68.9428 30.27C66.5864 30.2755 64.6717 28.3727 64.6661 26.02ZM66.4109 27.1184C66.8682 28.0743 67.8643 28.6539 68.9228 28.58C69.5871 28.5646 70.217 28.282 70.6696 27.7962C71.1222 27.3104 71.3591 26.6627 71.3265 26C71.3239 24.9407 70.673 23.9905 69.6851 23.6041C68.6972 23.2176 67.5731 23.4734 66.8505 24.249C66.1278 25.0247 65.9535 26.1626 66.4109 27.1184ZM57.0763 27.1184C57.5336 28.0743 58.5297 28.6539 59.5882 28.58C60.2525 28.5646 60.8824 28.282 61.335 27.7962C61.7876 27.3104 62.0245 26.6627 61.9919 26C61.9893 24.9407 61.3384 23.9905 60.3506 23.6041C59.3627 23.2176 58.2386 23.4734 57.5159 24.249C56.7932 25.0247 56.6189 26.1626 57.0763 27.1184ZM90.226 21.75C91.8866 21.8111 93.337 22.8892 93.8717 24.46L94.0821 24.9L88.3832 27.25C88.7381 28.0641 89.5578 28.5766 90.4464 28.54C91.3026 28.5483 92.0991 28.1031 92.5397 27.37L93.9919 28.37C92.9574 29.9347 91.0147 30.6328 89.2187 30.0851C87.4228 29.5375 86.2022 27.8748 86.2198 26C86.1506 24.8965 86.5419 23.8137 87.3009 23.0085C88.0598 22.2034 89.1187 21.7478 90.226 21.75ZM88.0627 25.88C88.0217 25.2525 88.2353 24.635 88.6555 24.1665C89.0757 23.6981 89.667 23.4182 90.2962 23.39C90.956 23.3498 91.5756 23.7084 91.8686 24.3L88.0627 25.88ZM85.3084 30H83.4354V17.5H85.3084V30ZM80.3706 22.7H80.3005C79.7344 22.0562 78.9151 21.691 78.057 21.7C75.7836 21.8101 73.997 23.6825 73.997 25.955C73.997 28.2275 75.7836 30.0999 78.057 30.21C78.9168 30.2272 79.7394 29.8606 80.3005 29.21H80.3706V29.82C80.3706 31.45 79.4993 32.32 78.0971 32.32C77.1391 32.299 76.2886 31.7026 75.9437 30.81L74.3212 31.48C74.9353 33.02 76.4371 34.0223 78.0971 34C80.2905 34 82.1034 32.71 82.1034 29.57V22H80.3706V22.7ZM75.794 26.005C75.794 27.3676 76.8552 28.4952 78.2173 28.58C78.8682 28.555 79.4805 28.2651 79.9119 27.7778C80.3433 27.2904 80.5561 26.6481 80.5009 26C80.5503 25.3543 80.3352 24.7161 79.9047 24.2317C79.4743 23.7472 78.8653 23.4579 78.2173 23.43C76.8552 23.5148 75.794 24.6424 75.794 26.005ZM102.645 17.5H98.1584V30H100.031V25.26H102.645C104.1 25.3644 105.492 24.6485 106.251 23.405C107.011 22.1614 107.011 20.5986 106.251 19.355C105.492 18.1115 104.1 17.3956 102.645 17.5ZM100.031 23.5H102.645L102.686 23.52C103.451 23.52 104.159 23.1121 104.542 22.45C104.925 21.7879 104.925 20.9721 104.542 20.31C104.159 19.6479 103.451 19.24 102.686 19.24H100.031V23.5ZM114.204 21.71C112.809 21.6242 111.498 22.3752 110.868 23.62L112.521 24.31C112.862 23.6959 113.533 23.3395 114.234 23.4C114.714 23.344 115.197 23.483 115.573 23.7857C115.95 24.0885 116.189 24.5296 116.237 25.01V25.13C115.634 24.8139 114.964 24.6492 114.284 24.65C112.501 24.65 110.678 25.65 110.678 27.47C110.714 28.2516 111.065 28.9853 111.652 29.5036C112.239 30.0219 113.012 30.2804 113.793 30.22C114.75 30.2729 115.661 29.8065 116.177 29H116.237V30H118.04V25.19C118.04 23 116.377 21.73 114.244 21.73L114.204 21.71ZM112.511 27.5C112.511 28.25 113.362 28.56 113.973 28.56L114.013 28.58C115.145 28.5575 116.087 27.7031 116.217 26.58C115.697 26.2904 115.109 26.1453 114.514 26.16C113.573 26.16 112.511 26.5 112.511 27.5ZM124.61 22L122.466 27.42H122.406L120.183 22H118.18L121.515 29.58L119.612 33.79H121.565L126.693 22H124.61ZM109.646 30H107.783V17.5H109.646V30Z" fill="white"/>
<path d="M11.1323 7.53997C10.8022 7.92959 10.6338 8.43043 10.6615 8.93997V31.06C10.6275 31.5704 10.7966 32.0735 11.1323 32.46L11.2024 32.54L23.6118 20.15V19.85L11.2024 7.46997L11.1323 7.53997Z" fill="url(#paint0_linear_11_409)"/>
<path d="M27.7182 24.28L23.6118 20.15V19.85L27.7182 15.72L27.8084 15.78L32.7261 18.56C34.1282 19.35 34.1282 20.65 32.7261 21.45L27.8284 24.23L27.7182 24.28Z" fill="url(#paint1_linear_11_409)"/>
<path d="M27.8384 24.22L23.6118 20L11.1323 32.46C11.7163 32.979 12.5878 33.0084 13.2056 32.53L27.8384 24.22Z" fill="url(#paint2_linear_11_409)"/>
<path d="M27.8384 15.78L13.2056 7.47997C12.5916 6.99469 11.7171 7.02 11.1323 7.53997L23.6118 20L27.8384 15.78Z" fill="url(#paint3_linear_11_409)"/>
<path opacity="0.2" d="M27.7182 24.13L13.2056 32.38C12.6128 32.8267 11.7952 32.8267 11.2024 32.38L11.1323 32.45L11.2024 32.53C11.7952 32.9767 12.6128 32.9767 13.2056 32.53L27.8384 24.22L27.7182 24.13Z" fill="black"/>
<path opacity="0.12" d="M11.1325 32.32C10.8108 31.9233 10.6531 31.4189 10.6918 30.91V31.06C10.6577 31.5704 10.8269 32.0735 11.1625 32.46L11.2326 32.39L11.1325 32.32Z" fill="black"/>
<path opacity="0.12" d="M32.7261 21.3L27.7183 24.13L27.8084 24.22L32.7261 21.44C33.3174 21.1904 33.7247 20.6379 33.7877 20C33.6608 20.5771 33.2667 21.0596 32.7261 21.3Z" fill="black"/>
<path opacity="0.25" d="M13.2056 7.61998L32.7261 18.7C33.2667 18.9403 33.6608 19.4229 33.7878 20C33.7247 19.3621 33.3174 18.8096 32.7261 18.56L13.2056 7.47998C11.8134 6.67998 10.6616 7.33998 10.6616 8.93998V9.08998C10.6917 7.48998 11.8134 6.82998 13.2056 7.61998Z" fill="white"/>
<path fill-rule="evenodd" clip-rule="evenodd" d="M42.1208 14.27H42.852V13H47.4091V14.26H48.1503V12.26H47.4792V7H43.473V10C43.5746 10.8271 43.3073 11.6571 42.7418 12.27H42.1208V14.27ZM43.6733 12.29C44.0899 11.6014 44.2889 10.8033 44.2442 10V7.74H46.678V12.29H43.6733Z" fill="white"/>
<path d="M42.852 14.27V14.37H42.952V14.27H42.852ZM42.1208 14.27H42.0208V14.37H42.1208V14.27ZM42.852 13V12.9H42.752V13H42.852ZM47.4091 13H47.5091V12.9H47.4091V13ZM47.4091 14.26H47.3091V14.36H47.4091V14.26ZM48.1503 14.26V14.36H48.2503V14.26H48.1503ZM48.1503 12.26H48.2503V12.16H48.1503V12.26ZM47.4792 12.26H47.3792V12.36H47.4792V12.26ZM47.4792 7H47.5792V6.9H47.4792V7ZM43.473 7V6.9H43.373V7H43.473ZM43.473 10H43.3722L43.3737 10.0122L43.473 10ZM42.7418 12.27V12.37H42.7856L42.8153 12.3378L42.7418 12.27ZM42.1208 12.27V12.17H42.0208V12.27H42.1208ZM44.2442 10H44.144L44.1443 10.0056L44.2442 10ZM43.6733 12.29L43.5877 12.2382L43.4959 12.39H43.6733V12.29ZM44.2442 7.74V7.64H44.1442V7.74H44.2442ZM46.678 7.74H46.778V7.64H46.678V7.74ZM46.678 12.29V12.39H46.778V12.29H46.678ZM42.852 14.17H42.1208V14.37H42.852V14.17ZM42.752 13V14.27H42.952V13H42.752ZM47.4091 12.9H42.852V13.1H47.4091V12.9ZM47.5091 14.26V13H47.3091V14.26H47.5091ZM48.1503 14.16H47.4091V14.36H48.1503V14.16ZM48.0503 12.26V14.26H48.2503V12.26H48.0503ZM47.4792 12.36H48.1503V12.16H47.4792V12.36ZM47.3792 7V12.26H47.5792V7H47.3792ZM43.473 7.1H47.4792V6.9H43.473V7.1ZM43.573 10V7H43.373V10H43.573ZM42.8153 12.3378C43.4007 11.7033 43.6774 10.8441 43.5722 9.9878L43.3737 10.0122C43.4718 10.8101 43.2139 11.6108 42.6683 12.2022L42.8153 12.3378ZM42.1208 12.37H42.7418V12.17H42.1208V12.37ZM42.2208 14.27V12.27H42.0208V14.27H42.2208ZM44.1443 10.0056C44.1879 10.7887 43.9939 11.5668 43.5877 12.2382L43.7588 12.3418C44.1859 11.6359 44.3898 10.8178 44.344 9.99445L44.1443 10.0056ZM44.1442 7.74V10H44.3442V7.74H44.1442ZM46.678 7.64H44.2442V7.84H46.678V7.64ZM46.778 12.29V7.74H46.578V12.29H46.778ZM43.6733 12.39H46.678V12.19H43.6733V12.39Z" fill="white"/>
<path fill-rule="evenodd" clip-rule="evenodd" d="M51.9712 13.131C52.7961 13.131 53.5871 12.8032 54.1696 12.22C54.7621 11.6354 55.0849 10.8314 55.061 10C55.0755 9.17034 54.7541 8.36992 54.1696 7.78002C53.5871 7.19684 52.7961 6.86908 51.9712 6.86908C51.1462 6.86908 50.3552 7.19684 49.7727 7.78002C48.5823 9.02138 48.5823 10.9787 49.7727 12.22C50.3552 12.8032 51.1462 13.131 51.9712 13.131ZM51.9661 12.4C51.3512 12.4085 50.7602 12.1624 50.3336 11.72C49.4517 10.7424 49.4517 9.25764 50.3336 8.28002C50.7602 7.83768 51.3512 7.5915 51.9661 7.60002C52.5818 7.58784 53.1742 7.8346 53.5987 8.28002C54.4948 9.25218 54.4948 10.7479 53.5987 11.72C53.1742 12.1654 52.5818 12.4122 51.9661 12.4Z" fill="white"/>
<path d="M54.1696 12.22L54.0994 12.1488L54.0988 12.1494L54.1696 12.22ZM55.061 10L54.9609 9.99827L54.961 10.0029L55.061 10ZM54.1696 7.78002L54.2406 7.70963L54.2403 7.70935L54.1696 7.78002ZM49.7727 7.78002L49.702 7.70934L49.7005 7.71081L49.7727 7.78002ZM49.7727 12.22L49.7005 12.2893L49.702 12.2907L49.7727 12.22ZM50.3336 11.72L50.2593 11.787L50.2616 11.7894L50.3336 11.72ZM51.9661 12.4L51.9681 12.3L51.9648 12.3L51.9661 12.4ZM50.3336 8.28002L50.2616 8.21057L50.2593 8.21304L50.3336 8.28002ZM51.9661 7.60002L51.9648 7.70007L51.9681 7.7L51.9661 7.60002ZM53.5987 8.28002L53.6722 8.21224L53.6711 8.21104L53.5987 8.28002ZM53.5987 11.72L53.6711 11.789L53.6722 11.7878L53.5987 11.72ZM54.0988 12.1494C53.5351 12.7137 52.7696 13.031 51.9712 13.031V13.231C52.8226 13.231 53.6391 12.8927 54.2403 12.2907L54.0988 12.1494ZM54.961 10.0029C54.9842 10.8065 54.6721 11.5837 54.0994 12.1488L54.2398 12.2912C54.8521 11.6871 55.1857 10.8563 55.1609 9.99714L54.961 10.0029ZM54.0986 7.85041C54.6641 8.42116 54.975 9.19558 54.961 9.99827L55.161 10.0018C55.176 9.14511 54.8441 8.31867 54.2406 7.70964L54.0986 7.85041ZM51.9712 6.96908C52.7696 6.96908 53.5351 7.28631 54.0988 7.85069L54.2403 7.70935C53.6391 7.10738 52.8226 6.76908 51.9712 6.76908V6.96908ZM49.8435 7.85069C50.4072 7.28631 51.1728 6.96908 51.9712 6.96908V6.76908C51.1197 6.76908 50.3033 7.10738 49.702 7.70935L49.8435 7.85069ZM49.8449 12.1508C48.6915 10.9481 48.6915 9.05191 49.8449 7.84924L49.7005 7.71081C48.473 8.99085 48.473 11.0092 49.7005 12.2892L49.8449 12.1508ZM51.9712 13.031C51.1728 13.031 50.4072 12.7137 49.8435 12.1494L49.702 12.2907C50.3033 12.8927 51.1197 13.231 51.9712 13.231V13.031ZM50.2616 11.7894C50.7074 12.2517 51.325 12.5089 51.9675 12.5L51.9648 12.3C51.3774 12.3082 50.813 12.073 50.4056 11.6506L50.2616 11.7894ZM50.2593 8.21304C49.3431 9.22871 49.3431 10.7713 50.2593 11.787L50.4078 11.653C49.5602 10.7135 49.5602 9.28656 50.4078 8.34701L50.2593 8.21304ZM51.9675 7.50003C51.325 7.49113 50.7074 7.74836 50.2616 8.21061L50.4056 8.34944C50.813 7.927 51.3774 7.69188 51.9648 7.70001L51.9675 7.50003ZM53.6711 8.21104C53.2273 7.74529 52.6078 7.4873 51.9642 7.50004L51.9681 7.7C52.5558 7.68837 53.1212 7.92391 53.5263 8.34901L53.6711 8.21104ZM53.6722 11.7878C54.6036 10.7773 54.6036 9.2227 53.6722 8.21225L53.5252 8.3478C54.3859 9.28167 54.3859 10.7184 53.5252 11.6522L53.6722 11.7878ZM51.9642 12.5C52.6078 12.5127 53.2273 12.2548 53.6711 11.789L53.5263 11.651C53.1212 12.0761 52.5558 12.3117 51.9681 12.3L51.9642 12.5Z" fill="white"/>
<path d="M58.9472 13.13C58.1283 13.1428 57.3397 12.8214 56.7637 12.24C55.5631 10.9872 55.5631 9.01278 56.7637 7.76001C57.3493 7.16844 58.1545 6.84612 58.9872 6.87001C59.8369 6.84601 60.6501 7.21506 61.1907 7.87001L60.6598 8.39001C60.2605 7.87747 59.6369 7.59037 58.9872 7.62001C58.3641 7.60414 57.7622 7.8467 57.3246 8.29001C56.4306 9.27063 56.4306 10.7694 57.3246 11.75C57.7622 12.1933 58.3641 12.4359 58.9872 12.42C59.6838 12.4003 60.3362 12.0746 60.77 11.53L61.3109 12.06C61.0365 12.3883 60.695 12.6542 60.3093 12.84C59.8832 13.0388 59.4174 13.1379 58.9472 13.13Z" fill="white" stroke="white" stroke-width="0.2"/>
<path d="M64.4558 13H63.6846V7.74H62.002V7H66.1284V7.74H64.4558V13Z" fill="white" stroke="white" stroke-width="0.2"/>
<path d="M71.4366 7L69.1631 12.06C69.0515 12.4706 68.7649 12.8116 68.3792 12.9925C67.9936 13.1735 67.5478 13.1762 67.16 13L67.3603 12.29C67.4828 12.3588 67.6204 12.3965 67.7609 12.4C67.9091 12.4074 68.056 12.369 68.1816 12.29C68.3032 12.1889 68.3964 12.058 68.452 11.91L68.6723 11.43L66.6692 7H67.5806L69.0629 10.44L70.5252 7H71.4366Z" fill="white" stroke="white" stroke-width="0.2"/>
<path d="M72.3079 13V7H76.6547V13H75.8834V7.74H73.0791V13H72.3079Z" fill="white" stroke="white" stroke-width="0.2"/>
<path d="M78.0269 13V7H78.7981V9.57H81.8028V7H82.584V13H81.8028V10.29H78.7981V13H78.0269Z" fill="white" stroke="white" stroke-width="0.2"/>
<path fill-rule="evenodd" clip-rule="evenodd" d="M86.6705 13.1318C87.4971 13.1318 88.2897 12.8038 88.8739 12.22H88.8639C90.0442 10.9746 90.0442 9.02544 88.8639 7.78002C88.2814 7.19684 87.4904 6.86908 86.6655 6.86908C85.8406 6.86908 85.0496 7.19684 84.4671 7.78002C83.2766 9.02138 83.2766 10.9787 84.4671 12.22C85.0513 12.8038 85.8439 13.1318 86.6705 13.1318ZM86.6705 12.4C86.0548 12.4122 85.4624 12.1654 85.038 11.72C84.1419 10.7479 84.1419 9.25218 85.038 8.28002C85.4624 7.8346 86.0548 7.58784 86.6705 7.60002C87.2855 7.5915 87.8765 7.83768 88.3031 8.28002C89.185 9.25764 89.185 10.7424 88.3031 11.72C87.8765 12.1624 87.2855 12.4085 86.6705 12.4Z" fill="white"/>
<path d="M88.8739 12.22L88.9446 12.2908L89.1155 12.12H88.8739V12.22ZM88.8639 12.22L88.7913 12.1512L88.6314 12.32H88.8639V12.22ZM88.8639 7.78002L88.9365 7.71121L88.9347 7.70935L88.8639 7.78002ZM84.4671 7.78002L84.3963 7.70934L84.3949 7.71081L84.4671 7.78002ZM84.4671 12.22L84.3949 12.2893L84.3964 12.2908L84.4671 12.22ZM85.038 11.72L84.9644 11.7878L84.9656 11.789L85.038 11.72ZM86.6705 12.4L86.6719 12.3L86.6685 12.3L86.6705 12.4ZM85.038 8.28002L84.9655 8.21103L84.9644 8.21225L85.038 8.28002ZM86.6705 7.60002L86.6685 7.70006L86.6719 7.70001L86.6705 7.60002ZM88.3031 8.28002L88.3773 8.213L88.375 8.21061L88.3031 8.28002ZM88.3031 11.72L88.3751 11.7895L88.3773 11.787L88.3031 11.72ZM88.8033 12.1493C88.2378 12.7143 87.4706 13.0318 86.6705 13.0318V13.2318C87.5235 13.2318 88.3416 12.8933 88.9446 12.2908L88.8033 12.1493ZM88.8639 12.32H88.8739V12.12H88.8639V12.32ZM88.7913 7.84881C89.9351 9.05565 89.9351 10.9444 88.7913 12.1512L88.9365 12.2888C90.1534 11.0048 90.1534 8.99522 88.9365 7.71123L88.7913 7.84881ZM86.6655 6.96908C87.4639 6.96908 88.2294 7.28631 88.7932 7.85069L88.9347 7.70935C88.3334 7.10738 87.5169 6.76908 86.6655 6.76908V6.96908ZM84.5378 7.85069C85.1015 7.28631 85.8671 6.96908 86.6655 6.96908V6.76908C85.8141 6.76908 84.9976 7.10738 84.3963 7.70935L84.5378 7.85069ZM84.5392 12.1508C83.3859 10.9481 83.3859 9.05191 84.5392 7.84924L84.3949 7.71081C83.1673 8.99085 83.1673 11.0092 84.3949 12.2892L84.5392 12.1508ZM86.6705 13.0318C85.8704 13.0318 85.1032 12.7143 84.5377 12.1493L84.3964 12.2908C84.9994 12.8933 85.8175 13.2318 86.6705 13.2318V13.0318ZM84.9656 11.789C85.4094 12.2548 86.0288 12.5127 86.6725 12.5L86.6685 12.3C86.0809 12.3117 85.5154 12.0761 85.1103 11.651L84.9656 11.789ZM84.9644 8.21225C84.0331 9.2227 84.0331 10.7773 84.9644 11.7878L85.1115 11.6522C84.2507 10.7184 84.2507 9.28167 85.1115 8.3478L84.9644 8.21225ZM86.6725 7.50004C86.0288 7.4873 85.4094 7.74529 84.9656 8.21104L85.1103 8.34901C85.5154 7.92391 86.0809 7.68837 86.6685 7.7L86.6725 7.50004ZM88.375 8.21061C87.9293 7.74836 87.3117 7.49113 86.6691 7.50003L86.6719 7.70001C87.2592 7.69188 87.8237 7.927 88.2311 8.34944L88.375 8.21061ZM88.3773 11.787C89.2936 10.7713 89.2936 9.22871 88.3773 8.21304L88.2288 8.34701C89.0764 9.28656 89.0764 10.7135 88.2288 11.653L88.3773 11.787ZM86.6691 12.5C87.3117 12.5089 87.9293 12.2517 88.375 11.7894L88.2311 11.6506C87.8237 12.073 87.2592 12.3082 86.6719 12.3L86.6691 12.5Z" fill="white"/>
<path fill-rule="evenodd" clip-rule="evenodd" d="M92.9102 13V7.00003H95.0836C95.5341 6.99551 95.97 7.15962 96.3055 7.46003C96.6443 7.7536 96.8351 8.18221 96.8263 8.63003C96.8287 8.89941 96.7521 9.1636 96.6059 9.39003C96.4581 9.60474 96.2535 9.77435 96.015 9.88003C96.3042 9.97875 96.5582 10.1594 96.7462 10.4C96.9303 10.6451 97.0288 10.9437 97.0266 11.25C97.0369 11.7168 96.8387 12.1639 96.4857 12.47C96.1381 12.793 95.6785 12.9687 95.2037 12.96L92.9102 13ZM93.6814 9.57003H95.0836C95.3494 9.58538 95.6076 9.47856 95.7846 9.28003C95.9545 9.11386 96.0517 8.88742 96.0551 8.65003C96.0645 8.4119 95.9821 8.17922 95.8247 8.00003C95.6542 7.8112 95.408 7.70847 95.1537 7.72003H93.7114L93.6814 9.57003ZM95.2438 12.26H93.6814V10.29H95.2037C95.4868 10.2827 95.7597 10.3953 95.9549 10.6C96.1292 10.7804 96.2293 11.0195 96.2354 11.27C96.2345 11.5227 96.1379 11.7656 95.9649 11.95C95.7829 12.1556 95.5185 12.2692 95.2438 12.26Z" fill="white"/>
<path d="M92.9102 7.00003V6.90003H92.8102V7.00003H92.9102ZM92.9102 13H92.8102V13.1018L92.9119 13.1L92.9102 13ZM95.0836 7.00003V7.10003L95.0846 7.10002L95.0836 7.00003ZM96.3055 7.46003L96.2387 7.53453L96.24 7.53561L96.3055 7.46003ZM96.8263 8.63003L96.7263 8.62807L96.7263 8.63093L96.8263 8.63003ZM96.6059 9.39003L96.6883 9.44677L96.6899 9.44426L96.6059 9.39003ZM96.015 9.88003L95.9745 9.7886L95.7409 9.8921L95.9827 9.97467L96.015 9.88003ZM96.7462 10.4L96.8261 10.34L96.825 10.3385L96.7462 10.4ZM97.0266 11.25L96.9265 11.2493L96.9266 11.2522L97.0266 11.25ZM96.4857 12.47L96.4202 12.3944L96.4177 12.3968L96.4857 12.47ZM95.2037 12.96L95.2056 12.86L95.202 12.86L95.2037 12.96ZM95.0836 9.57003L95.0893 9.47003H95.0836V9.57003ZM93.6814 9.57003L93.5814 9.56841L93.5797 9.67003H93.6814V9.57003ZM95.7846 9.28003L95.7146 9.20838L95.71 9.21347L95.7846 9.28003ZM96.0551 8.65003L95.9551 8.64606L95.9551 8.6486L96.0551 8.65003ZM95.8247 8.00003L95.8999 7.93404L95.8989 7.93302L95.8247 8.00003ZM95.1537 7.72003V7.82013L95.1582 7.81993L95.1537 7.72003ZM93.7114 7.72003V7.62003H93.613L93.6114 7.71841L93.7114 7.72003ZM93.6814 12.26H93.5814V12.36H93.6814V12.26ZM95.2438 12.26L95.2472 12.16H95.2438V12.26ZM93.6814 10.29V10.19H93.5814V10.29H93.6814ZM95.2037 10.29V10.3901L95.2063 10.39L95.2037 10.29ZM95.9549 10.6L95.8826 10.6691L95.883 10.6695L95.9549 10.6ZM96.2354 11.27L96.3354 11.2704L96.3353 11.2676L96.2354 11.27ZM95.9649 11.95L95.892 11.8816L95.8901 11.8837L95.9649 11.95ZM92.8102 7.00003V13H93.0102V7.00003H92.8102ZM95.0836 6.90003H92.9102V7.10003H95.0836V6.90003ZM96.3722 7.38554C96.0181 7.06846 95.5581 6.89527 95.0826 6.90003L95.0846 7.10002C95.5102 7.09576 95.9219 7.25078 96.2387 7.53452L96.3722 7.38554ZM96.9263 8.63199C96.9356 8.15445 96.7322 7.69745 96.3709 7.38445L96.24 7.53561C96.5564 7.80976 96.7345 8.20996 96.7263 8.62807L96.9263 8.63199ZM96.6899 9.44426C96.8467 9.20142 96.9289 8.91806 96.9263 8.62913L96.7263 8.63093C96.7285 8.88075 96.6575 9.12578 96.5219 9.33579L96.6899 9.44426ZM96.0555 9.97146C96.3109 9.8583 96.53 9.67668 96.6883 9.44674L96.5236 9.33332C96.3862 9.5328 96.1962 9.6904 95.9745 9.7886L96.0555 9.97146ZM96.825 10.3385C96.6251 10.0826 96.3548 9.89038 96.0473 9.78539L95.9827 9.97467C96.2535 10.0671 96.4914 10.2363 96.6673 10.4616L96.825 10.3385ZM97.1266 11.2507C97.1289 10.9225 97.0234 10.6025 96.8261 10.34L96.6662 10.4601C96.8372 10.6877 96.9286 10.9649 96.9266 11.2493L97.1266 11.2507ZM96.5513 12.5456C96.9267 12.2199 97.1376 11.7443 97.1266 11.2478L96.9266 11.2522C96.9363 11.6892 96.7507 12.1078 96.4202 12.3945L96.5513 12.5456ZM95.2019 13.06C95.7025 13.0691 96.1872 12.8839 96.5538 12.5433L96.4177 12.3968C96.089 12.7021 95.6545 12.8682 95.2056 12.86L95.2019 13.06ZM92.9119 13.1L95.2055 13.06L95.202 12.86L92.9084 12.9L92.9119 13.1ZM95.0836 9.47003H93.6814V9.67003H95.0836V9.47003ZM95.71 9.21347C95.5533 9.3892 95.3247 9.48379 95.0893 9.4702L95.0778 9.66986C95.374 9.68697 95.6619 9.56792 95.8593 9.34659L95.71 9.21347ZM95.9551 8.6486C95.9521 8.85957 95.8657 9.06083 95.7147 9.20855L95.8546 9.35151C96.0433 9.16689 96.1513 8.91528 96.1551 8.65146L95.9551 8.6486ZM95.7496 8.06602C95.89 8.22595 95.9636 8.43358 95.9551 8.64606L96.155 8.654C96.1655 8.39021 96.0741 8.1325 95.8998 7.93404L95.7496 8.06602ZM95.1582 7.81993C95.3827 7.80972 95.6 7.90041 95.7505 8.06704L95.8989 7.93302C95.7084 7.72198 95.4333 7.60722 95.1491 7.62013L95.1582 7.81993ZM93.7114 7.82003H95.1537V7.62003H93.7114V7.82003ZM93.7813 9.57165L93.8114 7.72165L93.6114 7.71841L93.5814 9.56841L93.7813 9.57165ZM93.6814 12.36H95.2438V12.16H93.6814V12.36ZM93.5814 10.29V12.26H93.7814V10.29H93.5814ZM95.2037 10.19H93.6814V10.39H95.2037V10.19ZM96.0273 10.531C95.8125 10.3059 95.5124 10.182 95.2012 10.1901L95.2063 10.39C95.4611 10.3834 95.7068 10.4848 95.8826 10.6691L96.0273 10.531ZM96.3353 11.2676C96.3286 10.992 96.2185 10.7289 96.0268 10.5305L95.883 10.6695C96.0398 10.8318 96.1299 11.047 96.1354 11.2725L96.3353 11.2676ZM96.0379 12.0184C96.2281 11.8156 96.3344 11.5483 96.3354 11.2704L96.1354 11.2697C96.1346 11.497 96.0476 11.7156 95.892 11.8816L96.0379 12.0184ZM95.2405 12.36C95.5448 12.3702 95.838 12.2442 96.0398 12.0163L95.8901 11.8837C95.7278 12.0669 95.4921 12.1683 95.2472 12.1601L95.2405 12.36Z" fill="white"/>
<defs>
<linearGradient id="paint0_linear_11_409" x1="18.1746" y1="-7.55201" x2="-1.69304" y2="-2.25533" gradientUnits="userSpaceOnUse">
<stop stop-color="#00A0FF"/>
<stop offset="0.01" stop-color="#00A1FF"/>
<stop offset="0.26" stop-color="#00BEFF"/>
<stop offset="0.51" stop-color="#00D2FF"/>
<stop offset="0.76" stop-color="#00DFFF"/>
<stop offset="1" stop-color="#00E3FF"/>
</linearGradient>
<linearGradient id="paint1_linear_11_409" x1="34.5589" y1="9.79966" x2="10.3311" y2="9.79966" gradientUnits="userSpaceOnUse">
<stop stop-color="#FFE000"/>
<stop offset="0.41" stop-color="#FFBD00"/>
<stop offset="0.78" stop-color="#FFA500"/>
<stop offset="1" stop-color="#FF9C00"/>
</linearGradient>
<linearGradient id="paint2_linear_11_409" x1="10.7793" y1="13.5194" x2="-5.17031" y2="40.3405" gradientUnits="userSpaceOnUse">
<stop stop-color="#FF3A44"/>
<stop offset="1" stop-color="#C31162"/>
</linearGradient>
<linearGradient id="paint3_linear_11_409" x1="1.39203" y1="4.0989" x2="8.50902" y2="16.0765" gradientUnits="userSpaceOnUse">
<stop stop-color="#32A071"/>
<stop offset="0.07" stop-color="#2DA771"/>
<stop offset="0.48" stop-color="#15CF74"/>
<stop offset="0.8" stop-color="#06E775"/>
<stop offset="1" stop-color="#00F076"/>
</linearGradient>
</defs>
</svg>
