<svg width="109" height="109" viewBox="0 0 109 109" fill="none" xmlns="http://www.w3.org/2000/svg">
<path d="M105.456 6.88424H77.3457V4.01576C77.3457 1.80169 75.544 0 73.3299 0H36.6139C34.3997 0 32.5982 1.80169 32.5982 4.01576V6.88424H4.48768C2.27362 6.88424 0.471924 8.68573 0.471924 10.9V72.858C0.471924 75.0723 2.27362 76.8737 4.48768 76.8737H41.7772V79.7422C41.7772 81.9565 43.5789 83.758 45.7929 83.758H48.6614V96.379H41.2034C38.9892 96.379 37.1877 98.1807 37.1877 100.395V105.558H32.0244C31.0739 105.558 30.3034 106.329 30.3034 107.279C30.3034 108.23 31.0741 109 32.0244 109H57.2665C58.217 109 58.9875 108.229 58.9875 107.279C58.9875 106.328 58.2168 105.558 57.2665 105.558H40.6297V100.395C40.6297 100.079 40.8871 99.821 41.2034 99.821H68.7402C69.0563 99.821 69.3139 100.078 69.3139 100.395V105.558H64.1507C63.2001 105.558 62.4297 106.329 62.4297 107.279C62.4297 108.23 63.2003 109 64.1507 109H77.9192C78.8697 109 79.6402 108.229 79.6402 107.279C79.6402 106.328 78.8695 105.558 77.9192 105.558H72.756V100.395C72.756 98.1805 70.9543 96.379 68.7402 96.379H61.2822V83.758H64.1507C66.365 83.758 68.1665 81.9563 68.1665 79.7422V76.8737H105.456C107.67 76.8737 109.472 75.072 109.472 72.858V10.9C109.472 8.68573 107.67 6.88424 105.456 6.88424ZM57.8404 96.379H52.1036V83.758H57.8404V96.379ZM106.03 72.858C106.03 73.1741 105.773 73.4317 105.456 73.4317H61.8562C60.9056 73.4317 60.1352 74.2024 60.1352 75.1527C60.1352 76.1033 60.9058 76.8737 61.8562 76.8737H64.7246V79.7422C64.7246 80.0584 64.4673 80.316 64.1509 80.316H59.5614H45.7929C45.4768 80.316 45.2192 80.0586 45.2192 79.7422V76.8737H54.9719C55.9225 76.8737 56.6929 76.1031 56.6929 75.1527C56.6929 74.2022 55.9223 73.4317 54.9719 73.4317H4.48768C4.17154 73.4317 3.91394 73.1743 3.91394 72.858V63.1055H106.03V72.858H106.03ZM106.03 59.6632H3.91394V37.8632H17.1924L20.2801 44.0386C20.7691 45.0166 21.7523 45.624 22.8457 45.624C23.9391 45.624 24.9222 45.0164 25.4112 44.0383L28.499 37.8632H37.2703C38.1389 46.8651 45.7463 53.9265 54.9719 53.9265C64.1975 53.9265 71.805 46.8651 72.6736 37.8632H82.5089C83.1608 37.8632 83.7569 37.4949 84.0483 36.9118L87.0984 30.8117L90.1485 36.9118C90.4399 37.4949 91.0358 37.8632 91.6879 37.8632H106.03V59.6632ZM40.6299 36.142C40.6299 28.234 47.0639 21.8 54.9719 21.8C62.88 21.8 69.3139 28.234 69.3139 36.142C69.3139 44.0501 62.88 50.4842 54.9719 50.4842C47.0639 50.4842 40.6299 44.0503 40.6299 36.142ZM106.03 34.421H92.7515L89.6637 28.2457C89.1747 27.2677 88.1916 26.6603 87.0982 26.6603C86.0048 26.6603 85.0216 27.2679 84.5326 28.2459L81.4451 34.421H72.6733C71.8047 25.4191 64.1973 18.3578 54.9717 18.3578C45.7461 18.3578 38.1387 25.4191 37.2701 34.421H27.4349C26.7831 34.421 26.1872 34.7893 25.8955 35.3724L22.8454 41.4728L19.7954 35.3724C19.5039 34.7893 18.908 34.421 18.256 34.421H3.91394V10.9C3.91394 10.5839 4.17132 10.3263 4.48768 10.3263H61.8562C62.8067 10.3263 63.5772 9.5556 63.5772 8.60525C63.5772 7.6547 62.8065 6.88424 61.8562 6.88424H36.0404V4.01576C36.0404 3.69961 36.2978 3.44202 36.6141 3.44202H73.3299C73.646 3.44202 73.9036 3.6994 73.9036 4.01576V6.88424H68.7404C67.7898 6.88424 67.0194 7.65491 67.0194 8.60525C67.0194 9.55581 67.7901 10.3263 68.7404 10.3263H105.456C105.772 10.3263 106.03 10.5836 106.03 10.9V34.421Z" fill="#ECF0F2"/>
</svg>
