<svg width="110" height="72" viewBox="0 0 110 72" fill="none" xmlns="http://www.w3.org/2000/svg">
<path d="M108.187 34.5267L96.3808 13.4903C95.2197 11.4202 92.4503 9.79726 90.074 9.79726H8.18854C5.47977 9.79726 3.27542 12.0016 3.27542 14.7104V31.7688H1.63771C0.732056 31.7688 0 32.5025 0 33.4065C0 34.3105 0.732056 35.0442 1.63771 35.0442H3.27542V36.8178H1.63771C0.732056 36.8178 0 37.5515 0 38.4555C0 39.3596 0.732056 40.0932 1.63771 40.0932H3.27542V59.4051C3.27542 62.1139 5.47977 64.3182 8.18854 64.3182H19.4069C20.2879 68.6352 24.1153 71.8926 28.6877 71.8926C33.2619 71.8926 37.0892 68.6352 37.9703 64.3182H75.3019C76.1829 68.6352 80.0103 71.8926 84.5827 71.8926C89.1569 71.8926 92.9842 68.6352 93.8653 64.3182H105.084C107.792 64.3182 109.997 62.1139 109.997 59.4051V41.4591C110 39.3808 109.204 36.3347 108.187 34.5267ZM102.747 31.528H72.4686V19.4859H95.9894L102.747 31.528ZM28.6894 68.6172C25.2715 68.6172 22.4923 65.8364 22.4923 62.4201C22.4923 59.0022 25.2715 56.2214 28.6894 56.2214C32.1073 56.2214 34.8881 59.0022 34.8881 62.4201C34.8881 65.8364 32.1056 68.6172 28.6894 68.6172ZM84.5844 68.6172C81.1665 68.6172 78.3873 65.8364 78.3873 62.4201C78.3873 59.0022 81.1665 56.2214 84.5844 56.2214C88.0023 56.2214 90.7831 59.0022 90.7831 62.4201C90.7848 65.8364 88.0023 68.6172 84.5844 68.6172ZM105.087 61.0428H93.9472C93.2774 56.472 89.3403 52.946 84.5844 52.946C79.8301 52.946 75.8931 56.4703 75.2232 61.0428H38.0505C37.3807 56.472 33.4437 52.946 28.6877 52.946C23.9335 52.946 19.9964 56.4703 19.3266 61.0428H8.18854C7.28453 61.0428 6.55084 60.3075 6.55084 59.4051V55.4026H18.4242C18.8762 55.4026 19.2431 55.0357 19.2431 54.5837C19.2431 54.1317 18.8762 53.7648 18.4242 53.7648H6.55084V14.7104C6.55084 13.808 7.28453 13.0727 8.18854 13.0727H90.074C91.2859 13.0727 92.9302 14.0357 93.523 15.092L94.1519 16.2105H70.8309C69.9253 16.2105 69.1932 16.9442 69.1932 17.8482V33.1657C69.1932 34.0698 69.9253 34.8034 70.8309 34.8034H104.586L105.331 36.13C106.074 37.4516 106.726 39.9409 106.726 41.4591V53.7648H94.8528C94.4008 53.7648 94.034 54.1317 94.034 54.5837C94.034 55.0357 94.4008 55.4026 94.8528 55.4026H106.726V59.4051C106.725 60.3091 105.991 61.0428 105.087 61.0428ZM72.6733 54.5837C72.6733 55.0357 72.3065 55.4026 71.8545 55.4026H41.7616C41.3096 55.4026 40.9427 55.0357 40.9427 54.5837C40.9427 54.1317 41.3096 53.7648 41.7616 53.7648H71.8545C72.3065 53.7648 72.6733 54.1317 72.6733 54.5837ZM72.1951 9.11434H82.9778C85.4622 9.11434 87.4815 7.09504 87.4815 4.61063C87.4815 2.12623 85.4622 0.106934 82.9778 0.106934H72.1951C69.7107 0.106934 67.6914 2.12623 67.6914 4.61063C67.6914 7.09504 69.7107 9.11434 72.1951 9.11434ZM72.1951 3.38235H82.9778C83.6542 3.38235 84.2061 3.93262 84.2061 4.61063C84.2061 5.28865 83.6542 5.83892 82.9778 5.83892H72.1951C71.5187 5.83892 70.9668 5.28865 70.9668 4.61063C70.9668 3.93262 71.5187 3.38235 72.1951 3.38235ZM42.8277 41.0349V38.7389H45.1238C46.9335 38.7389 48.3992 37.2731 48.3992 35.4634V29.4105C48.3992 27.6008 46.9335 26.135 45.1238 26.135H42.8277V23.839C42.8277 22.0293 41.362 20.5636 39.5523 20.5636H33.4977C31.688 20.5636 30.2223 22.0293 30.2223 23.839V26.135H27.9262C26.1165 26.135 24.6508 27.6008 24.6508 29.4105V35.4651C24.6508 37.2747 26.1165 38.7405 27.9262 38.7405H30.2223V41.0366C30.2223 42.8462 31.688 44.312 33.4977 44.312H39.5523C41.3603 44.3103 42.8277 42.8446 42.8277 41.0349ZM39.5523 41.0349H33.4977V35.4634H27.9262V29.4105H33.4977V23.839H39.5523V29.4105H45.1238V35.4651H39.5523V41.0349ZM78.8835 29.8068V21.2088C78.8835 20.7568 79.2504 20.39 79.7024 20.39C80.1544 20.39 80.5212 20.7568 80.5212 21.2088V29.8068C80.5212 30.2588 80.1544 30.6256 79.7024 30.6256C79.2504 30.6256 78.8835 30.2588 78.8835 29.8068Z" fill="#ECF0F2"/>
</svg>
