<svg width="102" height="106" viewBox="0 0 102 106" fill="none" xmlns="http://www.w3.org/2000/svg">
<path d="M2.01562 105.851H99.9844C100.933 105.85 101.702 105.081 101.703 104.133V99.9471C101.696 94.1547 97.0023 89.461 91.2099 89.4539H64.4243V81.8392C64.4243 81.5831 64.4155 81.3289 64.4013 81.0763C80.5649 76.096 89.6308 58.9556 84.6505 42.792C82.4804 35.7483 77.8426 29.7237 71.5885 25.8236L74.3795 23.4275C75.1508 22.7634 75.2397 21.6005 74.5785 20.8268L73.1504 19.1581L77.6933 15.2439L78.1777 15.8104C78.4779 16.1623 78.9063 16.3795 79.3675 16.4137C79.4129 16.4174 79.4582 16.4189 79.5033 16.4189C79.9188 16.4194 80.3208 16.2702 80.6353 15.9986L84.6374 12.5631C85.3662 11.9358 85.4504 10.8372 84.8256 10.1063L76.812 0.756534C76.1859 0.0259709 75.0863 -0.0588259 74.3559 0.567128L74.3544 0.568331L70.3533 4.00411C69.6244 4.63122 69.5402 5.73002 70.1651 6.46085L70.5549 6.91589L66.0053 10.8224L64.8469 9.4706C64.1841 8.6972 63.0199 8.6075 62.2464 9.27028L62.2451 9.27144L37.9751 30.1055L37.4354 29.4758C36.8177 28.755 35.7326 28.6716 35.012 29.2893L35.0109 29.2901L30.2676 33.3616C29.5489 33.9802 29.4658 35.0634 30.082 35.7842L43.2966 51.2029C43.5926 51.5503 44.0154 51.7649 44.4707 51.7987C44.5156 51.8021 44.5603 51.8038 44.6047 51.8038C45.0149 51.8043 45.4115 51.6571 45.7219 51.389L50.4644 47.3179C51.1835 46.6994 51.2666 45.6157 50.6502 44.8949L50.1086 44.263L64.1244 32.2318L64.8078 32.5942C71.8295 36.412 76.1982 43.7672 76.1913 51.7598C76.1902 52.6265 76.1386 53.4923 76.0364 54.353C73.3704 53.8485 70.8002 55.601 70.296 58.267C69.8989 60.3654 70.9029 62.4796 72.78 63.4982C69.9864 67.8686 65.7404 71.1133 60.7898 72.6609C58.2585 69.947 54.7136 68.4063 51.0024 68.407C50.925 68.407 50.8488 68.4115 50.7718 68.4128C50.7336 68.4093 50.6949 68.407 50.6558 68.407H50.6526L13.4715 68.4942C12.4526 68.4942 11.6267 69.3203 11.6268 70.3393C11.6268 70.4952 11.6466 70.6506 11.6857 70.8016L14.1758 80.4206C14.3863 81.2348 15.1208 81.8035 15.9618 81.8033L37.5802 81.7917C37.5802 81.8074 37.5789 81.8229 37.5789 81.8383L37.5746 89.4539H10.7901C4.99772 89.461 0.303857 94.1547 0.296875 99.9471V104.133C0.297949 105.081 1.06683 105.85 2.01562 105.851ZM75.3998 3.07019L82.3255 11.1505L79.5914 13.4976L72.6657 5.41692L75.3998 3.07019ZM72.2326 8.87333L76.0138 13.2862L71.471 17.2007L67.6831 12.7811L72.2326 8.87333ZM44.6954 48.8727L32.5997 34.7586L36.0372 31.8066L48.134 45.9206L44.6954 48.8727ZM63.2278 29.6036C63.1447 29.6595 63.0686 29.725 63.0007 29.7987L48.4311 42.3056L39.6528 32.0631L63.3671 11.7069L72.1456 21.9496L63.2278 29.6036ZM75.1207 56.8441C75.5431 56.8443 75.9573 56.9601 76.3185 57.1792C76.3539 57.2037 76.3907 57.2263 76.4285 57.2469C77.496 57.9705 77.7749 59.4224 77.0513 60.49C76.6173 61.1304 75.8944 61.5141 75.1207 61.515C75.0702 61.515 75.0206 61.5107 74.9703 61.5075C74.9035 61.4948 74.8358 61.4877 74.7677 61.486C73.4939 61.2888 72.621 60.0962 72.8185 58.8221C72.9942 57.6865 73.9709 56.8477 75.1203 56.8454L75.1207 56.8441ZM75.443 64.0815C78.1489 63.904 80.1988 61.5663 80.0213 58.8604C79.9392 57.6115 79.3837 56.4412 78.4678 55.5883C78.6676 54.3218 78.7688 53.0418 78.7701 51.7598C78.7754 42.8979 73.9702 34.7313 66.221 30.4323L69.532 27.5901C82.9075 35.4046 87.4156 52.5824 79.6011 65.958C76.1215 71.9138 70.5693 76.3787 64.0054 78.4992C63.6726 77.2048 63.1475 75.9675 62.4475 74.8288C67.9084 72.8862 72.5099 69.0807 75.443 64.0815ZM51.0026 70.9849C54.2207 70.9847 57.2719 72.417 59.3278 74.8927C59.3596 74.9371 59.3942 74.9797 59.4313 75.0199C60.9962 76.9479 61.8494 79.3558 61.8472 81.839V89.4539H40.1536L40.1579 81.8392C40.162 75.85 45.0134 70.9943 51.0026 70.9849ZM16.5294 79.225L14.4183 71.0699L43.0834 71.0027C40.3708 72.9883 38.5 75.9175 37.8389 79.2136L16.5294 79.225ZM2.875 99.9471C2.87996 95.5778 6.42076 92.037 10.7901 92.032H38.7601C38.7943 92.0346 38.8282 92.0372 38.863 92.0372C38.8983 92.0372 38.9327 92.0348 38.967 92.032H63.0312C63.0656 92.0348 63.1 92.0372 63.1348 92.0372C63.17 92.0372 63.2044 92.0348 63.2388 92.032H91.2099C95.5792 92.037 99.1201 95.5778 99.125 99.9471V103.273H2.875V99.9471Z" fill="#ECF0F2"/>
</svg>
