<svg width="76" height="106" viewBox="0 0 76 106" fill="none" xmlns="http://www.w3.org/2000/svg">
<path d="M37.5703 0.0839844C27.623 0.0839844 18.2344 3.97266 11.166 11.0625C4.09766 18.1309 0.1875 27.5195 0.1875 37.4453V82.7988C0.1875 84.1738 1.30469 85.2695 2.6582 85.2695H12.9492C12.6055 87.2891 12.3906 88.8574 12.3906 89.6953V89.7168V95.9688C12.3906 97.4297 13.5723 98.6113 15.0332 98.6113H18.4707V103.273C18.4707 104.734 19.6523 105.916 21.1133 105.916H54.0059C55.4668 105.916 56.6484 104.734 56.6484 103.273V98.6113H60.0859C61.5469 98.6113 62.7285 97.4297 62.7285 95.9688V89.7168V89.6953C62.7285 88.8574 62.5137 87.2676 62.1699 85.2695H73.3203C74.6953 85.2695 75.8125 84.1523 75.8125 82.7988V64.3223C75.8125 63.4414 75.082 62.7109 74.2012 62.7109C73.3203 62.7109 72.5898 63.4414 72.5898 64.3223V82.0469H61.5898C59.9785 73.7539 57.1641 61.916 56.7129 59.6387V57.3828C61.9551 52.3555 65.2207 45.2871 65.2207 37.4668C65.2207 27.8418 60.2578 19.3555 52.7812 14.4141L56.1113 8.63477C66.0156 14.8223 72.6113 25.8223 72.6113 38.3262V56.8887C72.6113 57.7695 73.3418 58.5 74.2227 58.5C75.1035 58.5 75.834 57.7695 75.834 56.8887V38.3262C75.834 28.1641 71.8379 18.5605 64.5977 11.3203C57.3574 4.08008 47.7539 0.0839844 37.5703 0.0839844ZM35.959 3.34961V9.90234C32.1133 10.1172 28.4609 11.1484 25.1738 12.8027L21.9082 7.13086C26.1621 4.91797 30.9102 3.58594 35.959 3.34961ZM13.5723 82.0469H3.41016V37.4453C3.41016 25.4141 9.68359 14.8008 19.1152 8.7207L22.3809 14.3926C14.8828 19.334 9.94141 27.8203 9.94141 37.4453C9.94141 45.2656 13.207 52.334 18.4492 57.3613V59.6172C17.9766 61.916 15.1836 73.7539 13.5723 82.0469ZM53.4258 102.693H21.7148V98.6113H53.4473V102.693H53.4258ZM59.4414 88.1055H40.5781C39.6973 88.1055 38.9668 88.8359 38.9668 89.7168C38.9668 90.5976 39.6973 91.3281 40.5781 91.3281H59.5273V95.4101H15.6348V91.3281H33.123C34.0039 91.3281 34.7344 90.5976 34.7344 89.7168C34.7344 88.8359 34.0039 88.1055 33.123 88.1055H15.6992C15.7637 87.4824 20.8984 63.6348 21.3711 61.4219H53.748C54.2422 63.6133 59.3769 87.4824 59.4414 88.1055ZM50.7617 47.7578C50.7402 47.7578 50.7402 47.7578 50.7617 47.7578C50.4609 47.7148 50.1602 47.6934 49.8379 47.6934H25.3027C25.002 47.6934 24.6797 47.7148 24.3789 47.7578C22.0801 44.8145 20.834 41.2051 20.834 37.4453C20.834 28.2285 28.332 20.709 37.5703 20.709C46.8086 20.709 54.3066 28.207 54.3066 37.4453C54.3066 41.2051 53.0391 44.8359 50.7617 47.7578ZM53.4688 54.5469V55.9434V58.1777H21.6719V54.5469C21.6719 52.5488 23.3047 50.916 25.3027 50.916H49.8164C51.8359 50.916 53.4688 52.5488 53.4688 54.5469ZM61.9766 37.4453C61.9766 43.2891 59.9141 48.6387 56.4766 52.8496C56.0684 51.2812 55.1231 49.9277 53.834 48.9824C56.2188 45.6309 57.5078 41.5918 57.5078 37.4453C57.5078 26.4453 48.5488 17.4863 37.5488 17.4863C26.5488 17.4863 17.5898 26.4453 17.5898 37.4453C17.5898 41.6133 18.8789 45.6309 21.2852 48.9824C19.9961 49.9062 19.0508 51.2598 18.6426 52.8496C15.2051 48.6387 13.1426 43.2891 13.1426 37.4453C13.1426 23.9961 24.0781 13.0605 37.5273 13.0605C51.0195 13.0605 61.9766 23.9961 61.9766 37.4453ZM49.9668 12.7813C46.7012 11.127 43.0488 10.1172 39.1816 9.88086V3.34961C44.2305 3.56445 49 4.875 53.2754 7.02344L49.9668 12.7813Z" fill="#ECF0F2"/>
</svg>
