<svg width="109" height="102" viewBox="0 0 109 102" fill="none" xmlns="http://www.w3.org/2000/svg">
<path fill-rule="evenodd" clip-rule="evenodd" d="M1.82748 4.29875C7.30846 4.29875 7.30846 4.29875 7.30846 4.29875C7.30846 0.943359 7.30846 0.943359 7.30846 0.943359C10.9271 0.943359 10.9271 0.943359 10.9271 0.943359C10.9271 11.0589 10.9271 11.0589 10.9271 11.0589C7.30846 11.0589 7.30846 11.0589 7.30846 11.0589C7.30846 7.7035 7.30846 7.7035 7.30846 7.7035C3.63679 7.7035 3.63678 7.7035 3.63678 7.7035C3.63678 16.092 3.63678 16.092 3.63678 16.092C3.63678 22.6054 9.33068 27.8852 16.3548 27.8852C23.379 27.8852 29.0729 22.6054 29.0729 16.092C29.0729 7.7035 29.0729 7.7035 29.0729 7.7035C25.4543 7.7035 25.4543 7.7035 25.4543 7.7035C25.4543 11.0589 25.4543 11.0589 25.4543 11.0589C21.8359 11.0589 21.8359 11.0589 21.8359 11.0589C21.8359 0.943359 21.8359 0.943359 21.8359 0.943359C25.4543 0.943359 25.4543 0.943359 25.4543 0.943359C25.4543 4.29875 25.4543 4.29875 25.4543 4.29875C30.8822 4.29875 30.8822 4.29875 30.8822 4.29875C31.8931 4.29875 32.6915 5.08825 32.6915 5.97644C32.6915 7.7035 32.6915 7.7035 32.6915 7.7035C101.71 7.7035 101.71 7.7035 101.71 7.7035C105.754 7.7035 109 10.7135 109 14.4143C109 71.7028 109 71.7028 109 71.7028C109 75.4034 105.754 78.4136 101.71 78.4136C75.635 78.4136 75.635 78.4136 75.635 78.4136C82.872 91.8844 82.872 91.8844 82.872 91.8844C92.6634 91.8844 92.6634 91.8844 92.6634 91.8844C95.6433 91.8844 98.0912 94.1543 98.0912 96.967C98.0912 99.7301 95.6433 102 92.6634 102C30.8822 102 30.8822 102 30.8822 102C27.9022 102 25.4543 99.7301 25.4543 96.967C25.4543 94.1543 27.9022 91.8844 30.8822 91.8844C40.6734 91.8844 40.6734 91.8844 40.6734 91.8844C47.9637 78.4136 47.9637 78.4136 47.9637 78.4136C21.8359 78.4136 21.8359 78.4136 21.8359 78.4136C17.7915 78.4136 14.5455 75.4034 14.5455 71.7028C14.5455 37.9021 14.5455 37.9021 14.5455 37.9021C6.29735 37.0138 0.0181808 30.5498 0.0181808 22.852C0.0181808 5.97644 0.0181808 5.97644 0.0181808 5.97644C0.0181808 5.08825 0.816376 4.29875 1.82748 4.29875ZM29.0729 96.967C29.0729 97.8551 29.8711 98.6445 30.8822 98.6445C92.6634 98.6445 92.6634 98.6445 92.6634 98.6445C93.6744 98.6445 94.4726 97.8551 94.4726 96.967C94.4726 96.0293 93.6744 95.2399 92.6634 95.2399C30.8822 95.2399 30.8822 95.2399 30.8822 95.2399C29.8711 95.2399 29.0729 96.0293 29.0729 96.967ZM44.7177 91.8844C78.8278 91.8844 78.8278 91.8844 78.8278 91.8844C71.5375 78.4136 71.5375 78.4136 71.5375 78.4136C52.008 78.4136 52.008 78.4136 52.008 78.4136L44.7177 91.8844ZM18.1641 71.7028C18.1641 73.5284 19.8137 75.0581 21.8359 75.0581C101.71 75.0581 101.71 75.0581 101.71 75.0581C103.732 75.0581 105.381 73.5284 105.381 71.7028C105.381 64.9425 105.381 64.9425 105.381 64.9425C18.1641 64.9425 18.1641 64.9425 18.1641 64.9425V71.7028ZM18.1641 49.7939C18.1641 51.6691 19.8137 53.1494 21.8359 53.1494C43.6002 53.1494 43.6002 53.1494 43.6002 53.1494C45.6224 53.1494 47.2188 51.6691 47.2188 49.7939C47.2188 46.4387 47.2188 46.4387 47.2188 46.4387C45.4095 46.4387 45.4095 46.4387 45.4095 46.4387C44.3984 46.4387 43.6002 45.6491 43.6002 44.7116C43.6002 38.5436 43.6002 38.5436 43.6002 38.5436C37.2678 35.7309 34.5539 28.724 37.587 22.8027C40.5671 16.9308 48.1766 14.4143 54.5091 17.2269C60.8415 19.9902 63.5554 27.0463 60.5223 32.9183C59.2982 35.3856 57.1699 37.3593 54.5091 38.5436C54.5091 44.7116 54.5091 44.7116 54.5091 44.7116C54.5091 45.6491 53.7109 46.4387 52.6998 46.4387C50.8905 46.4387 50.8905 46.4387 50.8905 46.4387C50.8905 49.7939 50.8905 49.7939 50.8905 49.7939C50.8905 53.4947 47.6444 56.5047 43.6002 56.5047C21.8359 56.5047 21.8359 56.5047 21.8359 56.5047C20.5586 56.5047 19.2815 56.2087 18.1641 55.5672C18.1641 61.5872 18.1641 61.5872 18.1641 61.5872C105.381 61.5872 105.381 61.5872 105.381 61.5872C105.381 14.4143 105.381 14.4143 105.381 14.4143C105.381 12.5392 103.732 11.0589 101.71 11.0589C32.6915 11.0589 32.6915 11.0589 32.6915 11.0589C32.6915 22.852 32.6915 22.852 32.6915 22.852C32.6915 30.5498 26.4654 37.0138 18.1641 37.9021V49.7939ZM49.0812 36.3231C54.0835 36.3231 58.1277 32.5236 58.1277 27.8852C58.1277 23.2469 54.0835 19.4474 49.0812 19.4474C44.026 19.4474 39.9818 23.2469 39.9818 27.8852C39.9818 32.5236 44.026 36.3231 49.0812 36.3231ZM47.2188 39.6784C47.2188 43.0338 47.2188 43.0338 47.2188 43.0338C50.8905 43.0338 50.8905 43.0338 50.8905 43.0338C50.8905 39.6784 50.8905 39.6784 50.8905 39.6784H47.2188ZM16.3548 34.6454C21.9954 34.596 26.9444 31.1914 28.5407 26.1581C22.5808 32.4248 12.3105 33.017 5.60572 27.4905C5.07352 27.0463 4.59461 26.6516 4.16877 26.1581C5.76536 31.1914 10.7141 34.596 16.3548 34.6454Z" fill="white"/>
</svg>
